<svg width="511" height="511" viewBox="0 0 511 511" fill="none" xmlns="http://www.w3.org/2000/svg">
<g clip-path="url(#clip0)">
<path d="M49.9024 286.537C44.3936 286.537 39.9219 291.009 39.9219 296.518C39.9219 302.026 44.3936 306.498 49.9024 306.498C55.4111 306.498 59.8828 302.026 59.8828 296.518C59.8828 291.009 55.4111 286.537 49.9024 286.537Z" fill="#3A9A9F"/>
<path d="M458.72 321.145L364.631 353.492C365.048 351.176 365.282 348.814 365.282 346.416C365.282 324.404 347.376 306.494 325.36 306.494H260.729C259.013 306.494 257.321 306.053 255.828 305.211L203.099 275.555C192.674 269.679 180.826 266.572 168.838 266.572H98.0856C93.9686 254.958 82.8731 246.615 69.8634 246.615H9.98049C4.46783 246.615 0 251.083 0 256.595V436.24C0 441.753 4.46783 446.221 9.98049 446.221H69.8634C82.5768 446.221 93.4774 438.233 97.8049 427.012C109.103 428.416 122.175 431.757 130.39 436.685L182.584 468.002C202.358 479.87 224.998 486.143 248.062 486.143C266.339 486.143 284.046 482.307 300.697 474.743L486.978 392.72C507.609 384.35 517.796 359.597 506.003 337.781C497.328 321.726 477.013 314.584 458.72 321.145V321.145ZM79.8439 416.326C79.8205 421.808 75.3488 426.26 69.8634 426.26H19.961V266.576H69.8634C75.3644 266.576 79.8439 271.052 79.8439 276.556V416.326ZM479.395 374.26C479.29 374.299 479.184 374.346 479.079 374.389C479.079 374.389 292.522 456.533 292.487 456.548C278.432 462.942 263.485 466.182 248.062 466.182C228.616 466.182 209.528 460.895 192.857 450.887L140.659 419.57C129.485 412.868 113.485 408.782 99.8049 407.145V286.537H168.838C177.399 286.537 185.859 288.751 193.31 292.95L246.039 322.607C250.506 325.126 255.59 326.459 260.729 326.459H325.36C336.366 326.459 345.321 335.41 345.321 346.42C345.321 357.387 336.362 366.381 325.36 366.381H223.902C218.389 366.381 213.922 370.849 213.922 376.361C213.922 381.87 218.389 386.338 223.902 386.338H325.36C331.906 386.338 338.35 384.712 344.069 381.663C344.069 381.663 465.375 339.964 465.422 339.948C474.366 336.72 484.479 339.933 488.443 347.27C494.389 358.268 489.473 370.225 479.395 374.26V374.26Z" fill="#3A9A9F"/>
<path d="M290.678 267.032C292.557 268.658 294.884 269.469 297.216 269.469C299.547 269.469 301.879 268.658 303.754 267.032C385.184 196.459 435.555 160.744 435.555 105.243C435.555 61.3366 404.471 24.9507 360.802 24.9507C332.124 24.9507 310.163 41.4809 296.019 66.2878C281.906 41.5354 259.968 24.9507 231.247 24.9507C197.816 24.9507 169.867 46.6154 160.043 80.1397C158.491 85.4301 161.524 90.9739 166.815 92.5256C172.105 94.0773 177.649 91.0441 179.197 85.7537C186.468 60.9428 206.896 44.9117 231.247 44.9117C259.719 44.9117 279.692 70.1943 286.401 93.7342C287.598 98.0578 291.536 101.052 296.019 101.052C300.506 101.052 304.44 98.0578 305.637 93.7342C305.773 93.2468 319.637 44.9117 360.802 44.9117C392.038 44.9117 415.594 70.8453 415.594 105.243C415.594 149.64 372.194 181.648 297.208 246.303C251.52 207.067 215.228 179.449 194.6 152.432C191.255 148.05 184.994 147.208 180.612 150.553C176.23 153.898 175.392 160.159 178.733 164.545C201.984 194.997 241.235 224.174 290.678 267.032V267.032Z" fill="#3A9A9F"/>
<path d="M168.67 112.876C163.161 112.876 158.69 117.348 158.69 122.857C158.69 128.366 163.161 132.837 168.67 132.837C174.179 132.837 178.651 128.366 178.651 122.857C178.651 117.348 174.179 112.876 168.67 112.876Z" fill="#3A9A9F"/>
</g>
<defs>
<clipPath id="clip0">
<rect width="511" height="511" fill="white"/>
</clipPath>
</defs>
</svg>
