<svg width="512" height="512" viewBox="0 0 512 512" fill="none" xmlns="http://www.w3.org/2000/svg">
<path d="M255.985 210.001C230.621 210.001 209.985 230.637 209.985 256.001C209.985 281.365 230.621 302.001 255.985 302.001C281.349 302.001 301.985 281.365 301.985 256.001C301.985 230.637 281.35 210.001 255.985 210.001V210.001ZM255.985 282.001C241.649 282.001 229.985 270.338 229.985 256.001C229.985 241.664 241.649 230.001 255.985 230.001C270.321 230.001 281.985 241.664 281.985 256.001C281.985 270.338 270.322 282.001 255.985 282.001Z" fill="#3A9A9F"/>
<path d="M255.985 162.001C204.153 162.001 161.985 204.169 161.985 256.001C161.985 307.833 204.153 350.001 255.985 350.001C307.817 350.001 349.985 307.833 349.985 256.001C349.985 204.169 307.817 162.001 255.985 162.001V162.001ZM255.985 330.001C215.181 330.001 181.985 296.805 181.985 256.001C181.985 215.197 215.181 182.001 255.985 182.001C296.789 182.001 329.985 215.197 329.985 256.001C329.985 296.805 296.789 330.001 255.985 330.001Z" fill="#3A9A9F"/>
<path d="M511.593 7.23195C510.064 1.92496 504.523 -1.13203 499.215 0.391968L448.269 15.0739C443.463 15.8029 439.78 19.9519 439.78 24.9609V96.0928C435.062 93.1798 429.73 91.1718 424.024 90.3178C402.789 68.7688 378.033 51.7179 350.367 39.6339C320.544 26.6069 288.789 20.0009 255.986 20.0009C192.948 20.0009 133.683 44.5489 89.109 89.1238C44.5351 133.698 19.9861 192.963 19.9861 256C19.9861 286.368 25.6421 315.777 36.7891 343.595C29.6731 346.467 23.0061 350.777 17.2461 356.536C-5.72983 379.513 -5.72983 416.898 17.2461 439.875L86.442 509.071C88.395 511.023 90.954 512 93.513 512C96.072 512 98.632 511.023 100.584 509.071L145.217 464.438C179.154 482.491 217.284 492 255.986 492C302.667 492 347.802 478.392 386.516 452.646C391.115 449.587 392.364 443.38 389.305 438.781C386.247 434.182 380.039 432.934 375.441 435.992C340.02 459.55 298.713 472.001 255.986 472.001C222.621 472.001 189.729 464.279 160.074 449.583L169.781 439.876C192.757 416.899 192.757 379.514 169.781 356.537C149.034 335.792 116.541 333.777 93.514 350.497C82.605 342.575 69.57 338.867 56.667 339.355C45.6031 312.968 39.9871 284.965 39.9871 256.001C39.9871 136.899 136.884 40.0019 255.987 40.0019C309.469 40.0019 359.645 59.1419 399.132 94.2348C385.308 101.117 375.782 115.39 375.782 131.852C375.782 155.011 394.623 173.852 417.782 173.852C430.331 173.852 441.604 168.313 449.307 159.56C464.187 189.364 471.986 222.361 471.986 256.001C471.986 298.73 459.534 340.036 435.977 375.456C432.918 380.055 434.167 386.263 438.766 389.32C440.469 390.453 442.392 390.995 444.295 390.995C447.53 390.995 450.705 389.428 452.631 386.532C478.378 347.82 491.986 302.682 491.986 256.001C491.986 213.843 480.77 172.602 459.521 136.482C459.689 134.961 459.782 133.418 459.782 131.853V32.5729L504.755 19.6119C510.06 18.0799 513.122 12.5389 511.593 7.23195V7.23195ZM100.583 370.679C115.762 355.501 140.459 355.502 155.637 370.679C170.815 385.857 170.815 410.554 155.637 425.733L93.512 487.858L31.3871 425.733C16.2091 410.554 16.2091 385.857 31.3871 370.679C38.9761 363.09 48.9461 359.295 58.914 359.295C68.882 359.295 78.852 363.09 86.441 370.679C90.347 374.583 96.678 374.583 100.583 370.679V370.679ZM417.78 153.852C405.649 153.852 395.78 143.983 395.78 131.852C395.78 119.721 405.649 109.852 417.78 109.852C429.911 109.852 439.78 119.721 439.78 131.852C439.78 143.983 429.911 153.852 417.78 153.852Z" fill="#3A9A9F"/>
<path d="M255.985 444.668C360.016 444.668 444.652 360.032 444.652 256.001C444.652 250.479 440.175 246.001 434.652 246.001C429.129 246.001 424.652 250.479 424.652 256.001C424.652 349.004 348.988 424.668 255.985 424.668C250.462 424.668 245.985 429.146 245.985 434.668C245.985 440.19 250.462 444.668 255.985 444.668V444.668Z" fill="#3A9A9F"/>
<path d="M245.985 387.334C245.985 392.856 250.462 397.334 255.985 397.334C333.917 397.334 397.318 333.933 397.318 256.001C397.318 250.479 392.841 246.001 387.318 246.001C381.795 246.001 377.318 250.479 377.318 256.001C377.318 322.904 322.888 377.334 255.985 377.334C250.462 377.334 245.985 381.812 245.985 387.334V387.334Z" fill="#3A9A9F"/>
<path d="M415.795 405.811C413.165 405.811 410.585 406.872 408.715 408.731C406.855 410.601 405.795 413.171 405.795 415.811C405.795 418.441 406.855 421.021 408.715 422.881C410.585 424.741 413.155 425.811 415.795 425.811C418.425 425.811 421.005 424.742 422.865 422.881C424.725 421.02 425.795 418.441 425.795 415.811C425.795 413.171 424.725 410.601 422.865 408.731C421.005 406.871 418.425 405.811 415.795 405.811Z" fill="#3A9A9F"/>
</svg>
