<svg width="70" height="70" viewBox="0 0 70 70" fill="none" xmlns="http://www.w3.org/2000/svg">
<g clip-path="url(#clip0)">
<path d="M53.6331 46.2429C54.1846 46.1143 54.5274 45.5628 54.3987 45.0114C54.2701 44.4598 53.7184 44.1174 53.1672 44.2459C51.5067 44.6333 50.0256 45.5826 48.9799 46.9228C47.5263 46.2971 45.9168 46.1511 44.3466 46.5175C43.7951 46.6461 43.4523 47.1976 43.581 47.749C43.7096 48.3005 44.2614 48.6433 44.8126 48.5145C46.2201 48.186 47.6708 48.4247 48.8976 49.1866C50.1242 49.9483 50.9799 51.1417 51.3077 52.5472C51.3893 52.8976 51.4362 53.2555 51.4473 53.611C51.4643 54.1662 51.9199 54.6046 52.4715 54.6046C52.4822 54.6046 52.493 54.6045 52.5038 54.6042C53.0698 54.5867 53.5146 54.1137 53.4969 53.5477C53.4819 53.057 53.4171 52.5638 53.3047 52.0818C52.9252 50.4529 52.0297 49.032 50.7505 47.9957C51.4969 47.1234 52.5081 46.5054 53.6331 46.2429Z" fill="#3A9A9F"/>
<path d="M22.4647 47.5983C22.501 46.4346 22.7868 45.2661 23.3357 44.1711C24.0717 42.7026 25.2146 41.5032 26.641 40.7026C27.1349 40.4254 27.3104 39.8004 27.0333 39.3065C26.7561 38.8127 26.1312 38.6372 25.6372 38.9143C23.8524 39.9162 22.4226 41.4161 21.5023 43.2521C20.9165 44.421 20.5718 45.6569 20.4546 46.8987C18.1356 47.8705 16.2203 49.6819 15.1387 51.9584C14.8958 52.4698 15.1133 53.0815 15.6249 53.3246C15.767 53.3921 15.9168 53.4241 16.0643 53.4241C16.4478 53.4241 16.8156 53.208 16.9911 52.8386C17.7361 51.2705 18.9763 49.9787 20.491 49.1529C20.7783 51.3907 21.8077 53.526 23.5174 55.1898C23.7168 55.3837 23.9747 55.4804 24.2323 55.4804C24.4995 55.4804 24.7663 55.3766 24.9673 55.1702C25.3623 54.7642 25.3534 54.1151 24.9475 53.7201C23.2697 52.0873 22.4114 49.8868 22.4632 47.6636C22.4641 47.6417 22.4651 47.6201 22.4647 47.5983Z" fill="#3A9A9F"/>
<path d="M41.2548 18.302C40.7099 18.1486 40.1434 18.466 39.9899 19.0111C39.8365 19.5562 40.154 20.1225 40.6992 20.2759C42.9531 20.9104 44.7576 22.435 45.7727 24.4139C45.782 24.433 45.7913 24.4521 45.802 24.4709C46.3253 25.511 46.6318 26.6742 46.6719 27.8987C46.7258 29.5403 46.2935 31.1397 45.422 32.524C45.1203 33.0032 45.2642 33.6364 45.7434 33.9381C45.9131 34.045 46.1021 34.0959 46.2888 34.0959C46.6294 34.0959 46.9626 33.9262 47.1574 33.6167C48.248 31.8844 48.7889 29.884 48.7215 27.8316C48.6787 26.5247 48.3918 25.2741 47.9022 24.127C49.4766 22.1666 50.2955 19.6607 50.1599 17.1441C50.1294 16.5786 49.6428 16.1457 49.0808 16.1753C48.5151 16.2058 48.0815 16.689 48.112 17.2544C48.2053 18.9879 47.7317 20.7151 46.7947 22.1635C45.4748 20.3336 43.5513 18.9484 41.2548 18.302Z" fill="#3A9A9F"/>
<path d="M68.395 42.13C68.1179 39.8442 66.7884 37.8319 64.8681 36.6566C66.7331 34.7523 67.8107 32.1647 67.8107 29.467C67.8107 26.8875 66.8504 24.4223 65.1067 22.5254C63.6585 20.9502 61.7773 19.8795 59.7154 19.4383C59.9052 18.6523 60.0009 17.8459 60.0009 17.0287C60.0009 11.3725 55.4037 6.77086 49.753 6.77086C49.6088 6.77086 49.4643 6.77496 49.3199 6.78111C49.2883 6.78248 49.2566 6.78412 49.225 6.78576C49.0865 6.79287 48.9483 6.8023 48.8105 6.81488C48.808 6.81516 48.8054 6.81516 48.803 6.81543C48.4748 3.00221 45.2695 0 41.3764 0C38.6769 0 36.3081 1.44389 35 3.60035C33.6918 1.44389 31.3231 0 28.6235 0C24.7305 0 21.5251 3.00234 21.1971 6.81529C19.1722 6.62566 17.1277 7.04881 15.3609 8.00953C14.8633 8.2801 14.6795 8.90271 14.9499 9.40023C15.2205 9.89762 15.8425 10.0816 16.3406 9.81121C18.0416 8.88603 20.0714 8.59086 22.001 9.01182C22.0095 9.01373 22.0181 9.01428 22.0266 9.01578C23.0304 9.23822 23.9732 9.64359 24.8286 10.2222C25.0047 10.3413 25.2045 10.3984 25.4022 10.3984C25.7311 10.3984 26.0543 10.2404 26.2526 9.94738C26.5698 9.4783 26.4467 8.84078 25.9775 8.52359C25.1249 7.94691 24.2018 7.50955 23.2264 7.21369C23.3562 4.34479 25.727 2.05078 28.6235 2.05078C31.3292 2.05078 33.5765 4.05248 33.9666 6.65465C33.9381 6.91975 33.9224 22.3866 33.9224 22.3866C30.8458 23.721 27.2744 23.0601 24.8738 20.6593C23.7122 19.4977 22.9343 18.035 22.6243 16.4289C22.5171 15.873 21.9802 15.509 21.4231 15.6166C20.8671 15.7239 20.5033 16.2617 20.6107 16.8178C20.9987 18.8274 21.9715 20.6574 23.4236 22.1095C25.3994 24.0853 28.0097 25.1192 30.66 25.1192C31.7545 25.1192 32.8561 24.9424 33.9225 24.5833C33.9225 24.5833 33.9377 62.2363 33.9668 62.5193C33.546 65.5819 30.9167 67.9492 27.7439 67.9492C24.9924 67.9492 22.5776 66.1444 21.7586 63.5707C22.8841 62.8158 23.8719 61.8435 24.6541 60.6844C24.9708 60.215 24.8471 59.5777 24.3777 59.2609C23.9084 58.944 23.271 59.0678 22.9542 59.5372C22.2717 60.5484 21.3966 61.3854 20.3965 62.014C20.4107 62.0368 20.4234 62.061 20.4368 62.0845C20.3097 62.1022 20.1851 62.1428 20.0704 62.208C18.7816 62.9423 17.315 63.3305 15.8289 63.3305C11.0909 63.3305 7.23622 59.4712 7.23622 54.7276C7.23622 53.2059 7.6327 51.7311 8.38602 50.4273C8.3863 50.428 8.38671 50.4286 8.38698 50.4291C8.89038 49.5564 9.54717 48.7672 10.3437 48.1052C10.7791 47.7431 10.8386 47.0966 10.4767 46.6612C10.1147 46.2257 9.46843 46.166 9.03257 46.5281C8.42854 47.0303 7.8896 47.5918 7.41833 48.1991C4.95042 47.4436 3.32223 45.0022 3.64051 42.3769C3.89153 40.3066 5.33309 38.5454 7.31305 37.8902C7.31483 37.8897 7.31661 37.8886 7.31839 37.888C8.06159 37.6428 8.85538 37.5607 9.65532 37.6581C10.0126 37.7016 10.3649 37.78 10.7027 37.8916C11.2406 38.0693 11.8204 37.777 11.9979 37.2392C12.1753 36.7013 11.8833 36.1215 11.3456 35.944C10.8796 35.7902 10.3943 35.682 9.90278 35.6222C8.98745 35.5111 8.07745 35.5697 7.20833 35.7854C5.34102 34.2326 4.23975 31.9062 4.23975 29.467C4.23975 27.4029 5.00798 25.4306 6.40278 23.9132C7.62122 22.5879 9.22247 21.7094 10.9708 21.3933C11.8935 23.3533 13.4294 24.9904 15.3364 26.0341C15.4927 26.1197 15.6614 26.1602 15.8278 26.1602C16.1903 26.1602 16.5418 25.9674 16.7282 25.627C17 25.1301 16.8177 24.5071 16.3209 24.2352C14.6877 23.3412 13.394 21.9037 12.6786 20.1878C12.6597 20.1426 12.0494 18.0194 12.0494 17.0286C12.0494 15.3836 12.5334 13.797 13.449 12.4402C13.7658 11.9708 13.642 11.3334 13.1727 11.0167C12.7032 10.6999 12.0659 10.8236 11.7492 11.293C10.604 12.9899 9.99862 14.9733 9.99862 17.0286C9.99862 17.8458 10.0943 18.6523 10.2841 19.4381C8.22223 19.8793 6.34098 20.9501 4.89286 22.5252C3.14915 24.4222 2.18884 26.8874 2.18884 29.4669C2.18884 32.1647 3.26659 34.7523 5.13157 36.6565C3.21108 37.8317 1.88163 39.8441 1.60464 42.1299C1.18833 45.5629 3.18606 48.7696 6.29764 49.981C5.56675 51.448 5.18516 53.0655 5.18516 54.7274C5.18516 60.602 9.95979 65.3811 15.8286 65.3811C17.2386 65.3811 18.6346 65.099 19.9285 64.5583C21.1215 67.7765 24.2261 70 27.7439 70C30.8527 70 33.5677 68.286 35 65.7535C36.4321 68.286 39.1471 70 42.2559 70C45.7739 70 48.8786 67.7767 50.071 64.5585C51.3649 65.0992 52.7611 65.3812 54.1711 65.3812C55.6098 65.3812 57.0057 65.0985 58.3204 64.5411C58.8418 64.3199 59.085 63.718 58.864 63.1967C58.6429 62.6754 58.0412 62.4319 57.5196 62.6531C56.4598 63.1027 55.3333 63.3306 54.1712 63.3306C52.6849 63.3306 51.2182 62.9424 49.9295 62.2081C49.9224 62.204 49.9147 62.2011 49.9075 62.1973C48.7677 61.5452 47.7897 60.6397 47.0458 59.5373C46.7291 59.0678 46.0915 58.9441 45.6223 59.261C45.1528 59.5778 45.0291 60.215 45.346 60.6845C46.1222 61.8349 47.1053 62.8112 48.2405 63.5735C47.4206 66.1456 45.0064 67.9492 42.2559 67.9492C39.0833 67.9492 36.454 65.5819 36.0334 62.519C36.0625 62.236 36.062 6.91961 36.0334 6.65451C36.4235 4.05248 38.6707 2.05078 41.3764 2.05078C44.2729 2.05078 46.6439 4.34492 46.7735 7.21383C45.7986 7.51092 44.8666 7.95238 44.0223 8.52346C43.5532 8.84078 43.4302 9.47816 43.7475 9.94725C43.9456 10.2402 44.2688 10.3983 44.5978 10.3983C44.7953 10.3983 44.9952 10.3413 45.1713 10.2221C46.0407 9.63389 47.0268 9.21935 48.0521 9.00156C48.7316 8.83121 49.6181 8.82123 49.753 8.82123C54.2729 8.82123 57.9501 12.5029 57.9501 17.0283C57.9501 18.019 57.7746 18.9894 57.4283 19.9128C57.4259 19.9188 57.4247 19.9253 57.4225 19.9313C56.73 21.7641 55.4014 23.2921 53.6788 24.235C53.1821 24.507 52.9998 25.1301 53.2716 25.6268C53.458 25.9674 53.8095 26.16 54.172 26.16C54.3384 26.16 54.5071 26.1194 54.6635 26.034C56.5802 24.9848 58.1053 23.355 59.0277 21.3929C60.7766 21.7089 62.378 22.5873 63.5967 23.9129C64.9916 25.4304 65.7598 27.4027 65.7598 29.4667C65.7598 31.9063 64.658 34.2333 62.7901 35.7861C61.917 35.5692 61.0077 35.5115 60.0966 35.6219C59.6051 35.6818 59.1198 35.79 58.6538 35.9438C58.116 36.1212 57.8241 36.7011 58.0015 37.2389C58.179 37.7768 58.7585 38.0687 59.2967 37.8913C59.6344 37.7799 59.9868 37.7013 60.3441 37.6578C61.1398 37.5612 61.9336 37.6411 62.6813 37.8878C62.6831 37.8883 62.6847 37.8893 62.6865 37.89C64.6663 38.5451 66.1079 40.3063 66.359 42.3768C66.6773 45.0019 65.0492 47.443 62.5816 48.1987C62.1073 47.587 61.5678 47.0277 60.967 46.528C60.5315 46.166 59.885 46.2254 59.5231 46.6609C59.161 47.0963 59.2204 47.7429 59.656 48.1049C60.3192 48.6563 60.8893 49.2978 61.3587 50.0143C61.3908 50.0634 61.4229 50.1123 61.454 50.162C61.4898 50.2193 61.5245 50.2774 61.559 50.3356C62.3474 51.6616 62.7633 53.1696 62.7633 54.7276C62.7633 56.8127 62.0089 58.8239 60.6392 60.3907C60.2664 60.8171 60.31 61.4649 60.7363 61.8376C61.1626 62.2103 61.8104 62.1668 62.1832 61.7405C63.8797 59.8 64.8141 57.3094 64.8141 54.7277C64.8141 53.0656 64.4326 51.4482 63.7017 49.9812C66.8135 48.7698 68.8113 45.563 68.395 42.13Z" fill="#3A9A9F"/>
</g>
<defs>
<clipPath id="clip0">
<rect width="70" height="70" fill="white"/>
</clipPath>
</defs>
</svg>
