<svg width="70" height="70" viewBox="0 0 70 70" fill="none" xmlns="http://www.w3.org/2000/svg">
<g clip-path="url(#clip0)">
<path d="M61.5191 34.7266C61.1582 34.7289 60.798 34.7552 60.4406 34.8053C58.8077 29.8846 55.7856 25.5417 51.7391 22.3005C47.6925 19.0594 42.7944 17.0586 37.6359 16.5397L30.0338 10.943C29.5964 10.6209 29.2719 10.1688 29.1066 9.65131C28.9413 9.13382 28.9437 8.57734 29.1135 8.06131C29.2833 7.54528 29.6118 7.09607 30.052 6.77781C30.4923 6.45954 31.0218 6.28849 31.5651 6.28906H32.9673C33.6507 6.28993 34.3059 6.56182 34.7892 7.04509C35.2725 7.52837 35.5444 8.18358 35.5452 8.86703V10.2555C35.5454 10.5093 35.6463 10.7527 35.8257 10.9321C36.0051 11.1116 36.2485 11.2124 36.5023 11.2126H40.8773C41.131 11.2124 41.3744 11.1116 41.5538 10.9321C41.7333 10.7527 41.8342 10.5093 41.8343 10.2555V8.86703C41.8317 6.51568 40.8963 4.26141 39.2334 2.59901C37.5704 0.936601 35.3159 0.00188173 32.9645 0L31.5623 0C29.6947 3.39301e-05 27.8747 0.589795 26.362 1.68517C24.8493 2.78055 23.7211 4.32562 23.1383 6.10001C22.5554 7.87441 22.5478 9.78753 23.1164 11.5665C23.685 13.3455 24.8008 14.8996 26.3047 16.007L28.088 17.3195C23.795 18.4764 19.8556 20.6792 16.6222 23.731C13.3888 26.7828 10.9622 30.5884 9.55937 34.8075C9.20204 34.7574 8.84176 34.7311 8.48094 34.7288C6.23165 34.7288 4.07449 35.6223 2.48401 37.2128C0.893525 38.8032 0 40.9604 0 43.2097C0 45.459 0.893525 47.6161 2.48401 49.2066C4.07449 50.7971 6.23165 51.6906 8.48094 51.6906C8.84213 51.6883 9.20276 51.662 9.56047 51.6119C11.3269 56.9641 14.7364 61.6228 19.3038 64.9252C23.8712 68.2275 29.3638 70.0051 35 70.0051C40.6362 70.0051 46.1288 68.2275 50.6962 64.9252C55.2636 61.6228 58.6731 56.9641 60.4395 51.6119C60.7972 51.662 61.1579 51.6883 61.5191 51.6906C63.7683 51.6906 65.9255 50.7971 67.516 49.2066C69.1065 47.6161 70 45.459 70 43.2097C70 40.9604 69.1065 38.8032 67.516 37.2128C65.9255 35.6223 63.7683 34.7288 61.5191 34.7288V34.7266ZM27.4389 14.4654C26.2598 13.5969 25.3849 12.3783 24.9392 10.9833C24.4935 9.58832 24.4996 8.08822 24.9566 6.69691C25.4137 5.3056 26.2984 4.09414 27.4846 3.23529C28.6708 2.37644 30.0979 1.91405 31.5623 1.91406H32.9645C34.808 1.91609 36.5753 2.64928 37.8788 3.95278C39.1823 5.25627 39.9155 7.02361 39.9175 8.86703V9.29688H37.4566V8.86539C37.4548 7.67471 36.9809 6.53333 36.1389 5.69154C35.2968 4.84976 34.1552 4.3763 32.9645 4.375H31.5623C30.6162 4.37498 29.6942 4.67371 28.9278 5.22861C28.1615 5.7835 27.5899 6.5662 27.2946 7.4651C26.9993 8.364 26.9954 9.33319 27.2834 10.2344C27.5714 11.1357 28.1367 11.923 28.8985 12.4841L34.2579 16.4303C33.027 16.4628 31.7998 16.5801 30.5851 16.7814L27.4389 14.4654ZM8.48094 49.7766C6.73929 49.7766 5.06898 49.0847 3.83746 47.8532C2.60593 46.6216 1.91406 44.9513 1.91406 43.2097C1.91406 41.468 2.60593 39.7977 3.83746 38.5662C5.06898 37.3347 6.73929 36.6428 8.48094 36.6428C8.65484 36.6428 8.83367 36.6603 9.01195 36.6756C7.93278 40.9656 7.93278 45.456 9.01195 49.7459C8.83422 49.7591 8.65484 49.7766 8.48094 49.7766ZM35 68.0909C30.0786 68.0909 25.2678 66.6315 21.1758 63.8974C17.0839 61.1632 13.8946 57.277 12.0113 52.7303C10.128 48.1835 9.63519 43.1804 10.5953 38.3537C11.5554 33.5269 13.9253 29.0932 17.4052 25.6132C20.8851 22.1333 25.3188 19.7635 30.1456 18.8034C34.9724 17.8432 39.9755 18.336 44.5222 20.2193C49.069 22.1026 52.9551 25.2919 55.6893 29.3839C58.4235 33.4759 59.8828 38.2867 59.8828 43.208C59.8754 49.8051 57.2515 56.1299 52.5867 60.7947C47.9218 65.4595 41.5971 68.0835 35 68.0909ZM61.5191 49.7766C61.3452 49.7766 61.1658 49.7591 60.9875 49.7437C62.0667 45.4538 62.0667 40.9634 60.9875 36.6734C61.1658 36.6581 61.3446 36.6406 61.5185 36.6406C63.2602 36.6406 64.9305 37.3325 66.162 38.564C67.3935 39.7955 68.0854 41.4659 68.0854 43.2075C68.0854 44.9491 67.3935 46.6195 66.162 47.851C64.9305 49.0825 63.2602 49.7744 61.5185 49.7744L61.5191 49.7766Z" fill="#3A9A9F"/>
<path d="M28.0049 42.0115C28.0049 42.2653 28.1058 42.5087 28.2852 42.6882C28.4647 42.8677 28.7081 42.9685 28.962 42.9685C29.2158 42.9685 29.4592 42.8677 29.6387 42.6882C29.8182 42.5087 29.919 42.2653 29.919 42.0115C29.8681 40.3533 29.1736 38.78 27.9826 37.6251C26.7917 36.4702 25.1979 35.8243 23.5389 35.8243C21.8799 35.8243 20.2861 36.4702 19.0951 37.6251C17.9042 38.78 17.2097 40.3533 17.1588 42.0115C17.1588 42.2653 17.2596 42.5087 17.4391 42.6882C17.6185 42.8677 17.862 42.9685 18.1158 42.9685C18.3696 42.9685 18.613 42.8677 18.7925 42.6882C18.972 42.5087 19.0728 42.2653 19.0728 42.0115C19.1253 40.8622 19.6187 39.7775 20.4505 38.9828C21.2823 38.1881 22.3885 37.7446 23.5389 37.7446C24.6893 37.7446 25.7954 38.1881 26.6272 38.9828C27.459 39.7775 27.9525 40.8622 28.0049 42.0115Z" fill="#3A9A9F"/>
<path d="M46.4608 35.8268C44.7953 35.8032 43.1883 36.4409 41.9922 37.6003C40.7962 38.7596 40.1087 40.346 40.0804 42.0115C40.0804 42.2653 40.1813 42.5087 40.3608 42.6882C40.5402 42.8677 40.7837 42.9685 41.0375 42.9685C41.2913 42.9685 41.5347 42.8677 41.7142 42.6882C41.8937 42.5087 41.9945 42.2653 41.9945 42.0115C42.0454 40.8611 42.5382 39.7748 43.3703 38.9788C44.2023 38.1828 45.3094 37.7385 46.4608 37.7385C47.6123 37.7385 48.7194 38.1828 49.5514 38.9788C50.3834 39.7748 50.8762 40.8611 50.9272 42.0115C50.9272 42.2653 51.028 42.5087 51.2075 42.6882C51.3869 42.8677 51.6304 42.9685 51.8842 42.9685C52.138 42.9685 52.3814 42.8677 52.5609 42.6882C52.7404 42.5087 52.8412 42.2653 52.8412 42.0115C52.8137 40.3457 52.1264 38.759 50.9302 37.5995C49.734 36.4399 48.1266 35.8024 46.4608 35.8268Z" fill="#3A9A9F"/>
<path d="M43.4082 51.5506C43.1544 51.5506 42.911 51.6514 42.7315 51.8309C42.552 52.0104 42.4512 52.2538 42.4512 52.5076C42.4512 54.8226 39.0392 56.7776 35 56.7776C30.9608 56.7776 27.5488 54.8226 27.5488 52.5076C27.5488 52.2538 27.448 52.0104 27.2685 51.8309C27.089 51.6514 26.8456 51.5506 26.5918 51.5506C26.338 51.5506 26.0946 51.6514 25.9151 51.8309C25.7356 52.0104 25.6348 52.2538 25.6348 52.5076C25.6348 55.9754 29.7484 58.6917 35 58.6917C40.2516 58.6917 44.3652 55.9754 44.3652 52.5076C44.3652 52.2538 44.2644 52.0104 44.0849 51.8309C43.9054 51.6514 43.662 51.5506 43.4082 51.5506Z" fill="#3A9A9F"/>
<path d="M34.8501 50.1708H36.9791C37.2329 50.1708 37.4763 50.07 37.6558 49.8905C37.8353 49.7111 37.9361 49.4676 37.9361 49.2138C37.9361 48.96 37.8353 48.7166 37.6558 48.5371C37.4763 48.3576 37.2329 48.2568 36.9791 48.2568H34.8501C34.7246 48.2568 34.6005 48.2297 34.4865 48.1773C34.3724 48.1249 34.271 48.0486 34.1891 47.9534C34.1073 47.8582 34.047 47.7465 34.0123 47.6258C33.9776 47.5052 33.9694 47.3785 33.9882 47.2544L34.7604 42.1548C34.7817 42.0294 34.7778 41.9011 34.7489 41.7774C34.72 41.6536 34.6668 41.5368 34.5923 41.4338C34.5178 41.3308 34.4235 41.2437 34.315 41.1776C34.2065 41.1114 34.0858 41.0675 33.9602 41.0485C33.8345 41.0295 33.7063 41.0357 33.5831 41.0667C33.4598 41.0978 33.344 41.1531 33.2423 41.2294C33.1407 41.3057 33.0552 41.4015 32.991 41.5111C32.9268 41.6208 32.8851 41.7422 32.8682 41.8682L32.0955 46.9678C32.0354 47.3644 32.0617 47.7693 32.1725 48.1548C32.2834 48.5403 32.4762 48.8974 32.7377 49.2015C32.9993 49.5056 33.3234 49.7497 33.688 49.917C34.0526 50.0843 34.449 50.1709 34.8501 50.1708Z" fill="#3A9A9F"/>
</g>
<defs>
<clipPath id="clip0">
<rect width="70" height="70" fill="white"/>
</clipPath>
</defs>
</svg>
