<svg width="1000" height="1000" viewBox="0 0 1000 1000" fill="none" xmlns="http://www.w3.org/2000/svg">
<ellipse cx="490" cy="759.5" rx="392" ry="94.5" fill="black" fill-opacity="0.1"/>
<path d="M367.636 347.499L306.375 374.454L347.001 424.512L367.636 347.499Z" fill="#69BFC4"/>
<path d="M724.551 443.134L764.128 497.108L703.915 520.147L724.551 443.134Z" fill="#69BFC4"/>
<path d="M410.09 204.982L349.932 429.494L489.952 618.107L700.49 527.623L743.86 365.765L683.415 278.219L431.741 203.788L410.09 204.982Z" fill="#FCFAFA"/>
<path fill-rule="evenodd" clip-rule="evenodd" d="M626.511 405.672L438.102 355.188L442.299 339.524L630.708 390.008L626.511 405.672Z" fill="#3A9A9F"/>
<path fill-rule="evenodd" clip-rule="evenodd" d="M637.802 459.062L425.511 402.179L429.708 386.515L641.999 443.399L637.802 459.062Z" fill="#3A9A9F"/>
<path fill-rule="evenodd" clip-rule="evenodd" d="M601.328 499.654L412.92 449.17L417.117 433.506L605.525 483.99L601.328 499.654Z" fill="#3A9A9F"/>
<path fill-rule="evenodd" clip-rule="evenodd" d="M521.232 310.31L454.89 292.534L459.088 276.87L525.429 294.646L521.232 310.31Z" fill="#3A9A9F"/>
<path d="M228.873 653.078L304.421 371.132L488.276 619.057L771.462 496.275L695.914 778.221L228.873 653.078Z" fill="#79E4EA"/>
<path fill-rule="evenodd" clip-rule="evenodd" d="M294.996 374.459C297.348 365.683 308.987 363.591 314.454 370.962L485.724 601.918C488.787 606.047 494.338 607.534 499.055 605.489L762.857 491.112C771.277 487.461 780.311 495.093 777.959 503.869L704.575 777.744C703.029 783.511 697.024 786.913 691.162 785.342L229.428 661.621C223.566 660.05 220.067 654.101 221.612 648.334L294.996 374.459ZM321.597 407.993C316.13 400.621 304.491 402.713 302.139 411.49L241.731 636.937C240.185 642.704 243.685 648.652 249.547 650.223L679.437 765.412C685.3 766.983 691.305 763.581 692.85 757.814L753.258 532.367C755.61 523.59 746.576 515.959 738.156 519.609L493.662 625.616C488.945 627.66 483.394 626.173 480.332 622.044L321.597 407.993Z" fill="#3A9A9F"/>
<path fill-rule="evenodd" clip-rule="evenodd" d="M435.419 556.527L242.757 654.598L235.109 640.16L427.771 542.089L435.419 556.527Z" fill="#3A9A9F"/>
<path fill-rule="evenodd" clip-rule="evenodd" d="M565.279 591.274L680.439 771.826L694.358 763.265L579.197 582.712L565.279 591.274Z" fill="#3A9A9F"/>
<path fill-rule="evenodd" clip-rule="evenodd" d="M401.08 206.765C403.398 198.114 412.405 193.011 421.198 195.367L688.53 266.998C692.803 268.144 696.444 270.93 698.634 274.733L747.666 359.855C749.804 363.567 750.386 367.946 749.286 372.05L709.223 521.569C708.376 524.731 705.679 527.065 702.387 527.486V527.486C696.567 528.23 691.803 522.891 693.301 517.303L731.648 374.188C732.748 370.084 732.166 365.704 730.028 361.992L687.756 288.606C685.566 284.804 681.925 282.017 677.652 280.872L432.923 215.297C424.13 212.941 415.122 218.044 412.804 226.695L358.942 427.712C357.783 432.037 353.279 434.588 348.883 433.41V433.41C344.486 432.232 341.861 427.771 343.02 423.445L401.08 206.765Z" fill="#3A9A9F"/>
<path fill-rule="evenodd" clip-rule="evenodd" d="M679.435 277.153L695.356 281.419L678.918 342.768L738.625 358.767L734.428 374.43L673.288 358.048C665.286 355.904 660.537 347.679 662.681 339.677L679.435 277.153Z" fill="#3A9A9F"/>
<path fill-rule="evenodd" clip-rule="evenodd" d="M374.147 349.872L305.13 384.542L297.56 370.064L366.577 335.395L374.147 349.872Z" fill="#3A9A9F"/>
<path fill-rule="evenodd" clip-rule="evenodd" d="M716.097 437.269L763.418 510.106L777.262 501.429L729.941 428.592L716.097 437.269Z" fill="#3A9A9F"/>
<path fill-rule="evenodd" clip-rule="evenodd" d="M770.348 228.221L780.271 222.667C780.722 222.415 781.278 222.415 781.729 222.667L791.652 228.221C792.103 228.474 792.381 228.941 792.381 229.446V240.554C792.381 241.059 792.103 241.526 791.652 241.779L781.729 247.333C781.278 247.585 780.722 247.585 780.271 247.333L770.348 241.779C769.897 241.526 769.619 241.059 769.619 240.554V229.446C769.619 228.941 769.897 228.474 770.348 228.221ZM777.961 218.789C779.842 217.737 782.158 217.737 784.039 218.789L793.961 224.343C795.842 225.396 797 227.341 797 229.446V240.554C797 242.659 795.842 244.604 793.961 245.657L784.039 251.211C782.158 252.263 779.842 252.263 777.961 251.211L768.039 245.657C766.158 244.604 765 242.659 765 240.554V229.446C765 227.341 766.158 225.396 768.039 224.343L777.961 218.789Z" fill="#FF0066"/>
<path fill-rule="evenodd" clip-rule="evenodd" d="M848.348 572.221L858.271 566.667C858.722 566.415 859.278 566.415 859.729 566.667L869.652 572.221C870.103 572.474 870.381 572.941 870.381 573.446V584.554C870.381 585.059 870.103 585.526 869.652 585.779L859.729 591.333C859.278 591.585 858.722 591.585 858.271 591.333L848.348 585.779C847.897 585.526 847.619 585.059 847.619 584.554V573.446C847.619 572.941 847.897 572.474 848.348 572.221ZM855.961 562.789C857.842 561.737 860.158 561.737 862.039 562.789L871.961 568.343C873.842 569.396 875 571.341 875 573.446V584.554C875 586.659 873.842 588.604 871.961 589.657L862.039 595.211C860.158 596.263 857.842 596.263 855.961 595.211L846.039 589.657C844.158 588.604 843 586.659 843 584.554V573.446C843 571.341 844.158 569.396 846.039 568.343L855.961 562.789Z" fill="#FF0066"/>
<path fill-rule="evenodd" clip-rule="evenodd" d="M151.348 886.221L161.271 880.667C161.722 880.415 162.278 880.415 162.729 880.667L172.652 886.221C173.103 886.474 173.381 886.941 173.381 887.446V898.554C173.381 899.059 173.103 899.526 172.652 899.779L162.729 905.333C162.278 905.585 161.722 905.585 161.271 905.333L151.348 899.779C150.897 899.526 150.619 899.059 150.619 898.554V887.446C150.619 886.941 150.897 886.474 151.348 886.221ZM158.961 876.789C160.842 875.737 163.158 875.737 165.039 876.789L174.961 882.343C176.842 883.396 178 885.341 178 887.446V898.554C178 900.659 176.842 902.604 174.961 903.657L165.039 909.211C163.158 910.263 160.842 910.263 158.961 909.211L149.039 903.657C147.158 902.604 146 900.659 146 898.554V887.446C146 885.341 147.158 883.396 149.039 882.343L158.961 876.789Z" fill="#FF0066"/>
<path d="M289.278 150.5L304 125L318.722 150.5H289.278Z" stroke="#3A9A9F" stroke-width="3"/>
<path d="M106.39 400.363L99.1337 371.826L127.475 379.811L106.39 400.363Z" stroke="#3A9A9F" stroke-width="3"/>
<path d="M917.458 795.719L940.583 777.493L944.805 806.634L917.458 795.719Z" stroke="#3A9A9F" stroke-width="3"/>
<circle cx="282" cy="256" r="7" fill="#FF0066"/>
<circle cx="33" cy="418" r="7" fill="#FF0066"/>
<circle cx="146" cy="475" r="7" fill="#FF0066"/>
<circle cx="313" cy="883" r="7" fill="#FF0066"/>
<circle cx="740" cy="890" r="7" fill="#FF0066"/>
<circle cx="967" cy="656" r="7" fill="#FF0066"/>
<circle cx="915" cy="448" r="7" fill="#FF0066"/>
<circle cx="820" cy="401" r="7" fill="#FF0066"/>
<path d="M521.439 885.368L522.5 886.429L523.56 885.368L526.035 882.893C527.988 880.941 531.154 880.941 533.106 882.893L534.167 881.833L533.106 882.893C535.059 884.846 535.059 888.012 533.106 889.964L530.632 892.439L529.571 893.5L530.632 894.561L533.106 897.036C535.059 898.988 535.059 902.154 533.106 904.107C531.154 906.059 527.988 906.059 526.035 904.107L523.56 901.632L522.5 900.571L521.439 901.632L518.964 904.107C517.012 906.059 513.846 906.059 511.893 904.107C509.941 902.154 509.941 898.988 511.893 897.036L514.368 894.561L515.429 893.5L514.368 892.439L511.893 889.964C509.941 888.012 509.941 884.846 511.893 882.893C513.846 880.941 517.012 880.941 518.964 882.893L521.439 885.368Z" stroke="#3A9A9F" stroke-width="3"/>
<path d="M893.51 357.439L894.571 358.5L895.632 357.439L898.107 354.964C900.059 353.012 903.225 353.012 905.178 354.964L906.238 353.904L905.178 354.964C907.13 356.917 907.13 360.083 905.178 362.036L902.703 364.51L901.642 365.571L902.703 366.632L905.178 369.107C907.13 371.059 907.13 374.225 905.178 376.178C903.225 378.13 900.059 378.13 898.107 376.178L895.632 373.703L894.571 372.642L893.51 373.703L891.036 376.178C889.083 378.13 885.917 378.13 883.964 376.178C882.012 374.225 882.012 371.059 883.964 369.107L886.439 366.632L887.5 365.571L886.439 364.51L883.964 362.036C882.012 360.083 882.012 356.917 883.964 354.964C885.917 353.012 889.083 353.012 891.036 354.964L893.51 357.439Z" stroke="#3A9A9F" stroke-width="3"/>
<path d="M68.5104 574.439L69.5711 575.5L70.6317 574.439L73.1066 571.964C75.0592 570.012 78.225 570.012 80.1777 571.964L81.2383 570.904L80.1777 571.964C82.1303 573.917 82.1303 577.083 80.1777 579.036L77.7028 581.51L76.6421 582.571L77.7028 583.632L80.1777 586.107C82.1303 588.059 82.1303 591.225 80.1777 593.178C78.225 595.13 75.0592 595.13 73.1066 593.178L70.6317 590.703L69.5711 589.642L68.5104 590.703L66.0355 593.178C64.0829 595.13 60.9171 595.13 58.9645 593.178C57.0118 591.225 57.0118 588.059 58.9645 586.107L61.4393 583.632L62.5 582.571L61.4393 581.51L58.9645 579.036C57.0118 577.083 57.0118 573.917 58.9645 571.964C60.9171 570.012 64.0829 570.012 66.0355 571.964L68.5104 574.439Z" stroke="#3A9A9F" stroke-width="3"/>
</svg>
