<svg xmlns="http://www.w3.org/2000/svg" fill="none" viewBox="0 0 833 646"><defs/><path fill="#AB7F56" d="M353.5 623.5L0 418l353.5-206.5 356 206.5-356 205.5z"/><path fill="#836141" d="M0 441v-23l353.5 205.5v22L0 441z"/><path fill="#96704C" d="M353.5 645.5v-22l356-205.5v22l-356 205.5z"/><path fill="#DEDEDE" d="M353.5 211.5L0 418V204.5L353.5 0v211.5z"/><path fill="#F0D545" d="M0 346v72l353.5-206.5V137L0 346z"/><path fill="#FFE24A" d="M709.5 335.5V418l-356-206.5V137l356 198.5z"/><path fill="#EEE" d="M709.5 204v131.5L353.5 137V0l356 204z"/><path fill="#94C6F9" stroke="#fff" stroke-width="5" d="M425.3 109.8l-3.8-2.1v117.7l1.2.8 56 33 3.8 2.2V143l-1.2-.8-56-32.5z"/><path fill="#7DA8D5" d="M480 253l-53-30.5-3 1.5 56 33v-4z"/><path fill="#6B8FB4" d="M424 224V112l3 1.7v108.8l-3 1.5z"/><path fill="#94C6F9" stroke="#fff" stroke-width="5" d="M577.3 187.8l-3.8-2.1v117.7l1.2.8 56 33 3.8 2.2V221l-1.2-.8-56-32.5z"/><path fill="#7DA8D5" d="M632 331l-53-30.5-3 1.5 56 33v-4z"/><path fill="#6B8FB4" d="M576 302V190l3 1.7v108.8l-3 1.5z"/><path fill="#CB6B6F" d="M135 334.5V158l5.5 3.5V338l-5.5-3.5z"/><path fill="#FDB0B3" d="M212.5 112l5.5 3.5-77.5 46-5.5-3.5 77.5-46z"/><path fill="#EF8185" d="M140.5 338l77.5-45.5v-177l-77.5 46V338z"/><path fill="#F06" d="M212 289V126.5l-66 38v163l66-38.5z"/><path fill="#E4E4E4" d="M152.5 242.5l-1.5 1 3 1.5v-1.5l-1.5-1z"/><path fill="#C4C4C4" d="M151 246l5 2.5V238l-4-3v2l2 1.5v6.5l-3-1.5v2.5z"/><path fill="#9B9B9B" d="M158 247.5v-11l-2 1.5v10.5l2-1z"/><path fill="#E4E4E4" d="M158 236.5l-4-3-2 1.5 4 3 2-1.5z"/><path fill="#ABCE61" d="M234.5 373l-.5 30.4c4.5 4 14.1 12.7 16.5 14.6 2.4 2 3.7-3.2 4-6v-26.8l-20-12.2zM193 377.9l.5 30.4c-4.5 4-14.1 12.7-16.5 14.6-2.4 2-3.7-3.2-4-6V390l20-12.1z"/><ellipse cx="218" cy="475.3" fill="#000" fill-opacity=".1" rx="50" ry="35.3"/><path fill="#C4905F" d="M216 504.5V474h8v30.5c-1.2 3.4-7.5 3-8 0zM247 472.8v-30.4h8v30.4c-1.2 3.4-7.5 3-8 0zM180 471.6v-30.4h8v30.4c-1.2 3.4-7.5 3-8 0z"/><ellipse cx="217" cy="440" fill="#D79F6A" rx="50" ry="35.3"/><ellipse cx="217" cy="436.3" fill="#FBC592" rx="50" ry="35.3"/><path fill="#ABCE61" d="M474.8 368l.6 30.4c-5.4 4-17.1 12.7-20 14.6-3 2-4.5-3.2-5-6v-26.8l24.4-12.2zM525.3 372.9l-.6 30.4c5.5 4 17.2 12.7 20.1 14.6 3 2 4.5-3.2 4.9-6V385L525.3 373z"/><ellipse fill="#000" fill-opacity=".1" rx="60.9" ry="35.3" transform="matrix(-1 0 0 1 498.9 472.3)"/><path fill="#C4905F" d="M497.3 499.5V469h-9.7v30.5c1.5 3.4 9.1 3 9.7 0zM459.6 467.8v-30.4H450v30.4c1.4 3.4 9.1 3 9.7 0zM541.2 466.6v-30.4h-9.8v30.4c1.5 3.4 9.2 3 9.8 0z"/><ellipse fill="#D79F6A" rx="60.9" ry="35.3" transform="matrix(-1 0 0 1 496.1 435)"/><ellipse fill="#FBC592" rx="60.9" ry="35.3" transform="matrix(-1 0 0 1 496.1 431.3)"/><path fill="#ABCE61" d="M334.6 437l.6 30.4c-5.5 4-17.2 12.7-20.1 14.6-3 2-4.5-3.2-4.9-6v-26.8l24.4-12.2zM385 441.9l-.5 30.4c5.5 4 17.1 12.7 20 14.6 3 2 4.5-3.2 5-6V454L385 442z"/><ellipse fill="#000" fill-opacity=".1" rx="60.9" ry="35.3" transform="matrix(-1 0 0 1 358.6 541.3)"/><path fill="#C4905F" d="M357 568.5V538h-9.7v30.5c1.5 3.4 9.2 3 9.8 0zM319.3 536.8v-30.4h-9.7v30.4c1.5 3.4 9.1 3 9.7 0zM401 535.6v-30.4h-9.8v30.4c1.4 3.4 9.1 3 9.7 0z"/><ellipse fill="#D79F6A" rx="60.9" ry="35.3" transform="matrix(-1 0 0 1 355.9 504)"/><ellipse fill="#FBC592" rx="60.9" ry="35.3" transform="matrix(-1 0 0 1 355.9 500.3)"/><path fill="#FBC592" d="M123.5 262.5l-88 50.5v-41l88-51v41.5z"/><path fill="#FBC592" d="M123.5 303.5l-88 50.5v-41l88-51v41.5zM123.5 345.5l-88 50.5v-41l88-51v41.5z"/><path fill="#C3905F" d="M123.5 262l-36-20 36-20.5V262zM123.5 302.5l-36-20 36-20.5v40.5zM123.5 345.5l-36-20 36-20.5v40.5z"/><path fill="#FBC592" d="M35.5 437.8V396l88.5-51v41.5l-88.5 51.3z"/><path fill="#C3905F" d="M35 438.5L0 418V252l35 20v166.5z"/><path fill="#FBC592" d="M88.5 200L0 252l35 20 89-51.5L88.5 200z"/><path fill="#E73238" d="M94 252l-22 13 14 8 21.5-12.5L94 252z"/><path fill="#ABCE61" d="M86 278v-5l21.5-12.5v4.5L86 278zM72 269.5l14 8.5v-.5L72 269v.5z"/><path fill="#EEE" d="M72 265v4l14 8.5V273l-14-8z"/><path fill="#E73238" d="M94 248l-22 13 14 8 21.5-12.5L94 248z"/><path fill="#FF555B" d="M86 274v-5l21.5-12.5v4.5L86 274zM72 265.5l14 8.5v-.5L72 265v.5z"/><path fill="#EEE" d="M72 261v4l14 8.5V269l-14-8z"/><path fill="#E73238" d="M90 332l-22 13 14 8 21.5-12.5L90 332z"/><path fill="#ABCE61" d="M82 358v-5l21.5-12.5v4.5L82 358zM68 349.5l14 8.5v-.5L68 349v.5z"/><path fill="#EEE" d="M68 345v4l14 8.5V353l-14-8z"/><path fill="#E73238" d="M90 328l-22 13 14 8 21.5-12.5L90 328z"/><path fill="#FF555B" d="M82 354v-5l21.5-12.5v4.5L82 354zM68 345.5l14 8.5v-.5L68 345v.5z"/><path fill="#EEE" d="M68 341v4l14 8.5V349l-14-8z"/><path fill="#E73238" d="M59 358l-22 13 14 8 21.5-12.5L59 358z"/><path fill="#FF555B" d="M51 384v-5l21.5-12.5v4.5L51 384zM37 375.5l14 8.5v-.5L37 375v.5z"/><path fill="#EEE" d="M37 371v4l14 8.5V379l-14-8z"/><path fill="#54C6CC" d="M59 354l-22 13 14 8 21.5-12.5L59 354z"/><path fill="#3A9A9F" d="M51 380v-5l21.5-12.5v4.5L51 380zM37 371.5l14 8.5v-.5L37 371v.5z"/><path fill="#EEE" d="M37 367v4l14 8.5V375l-14-8z"/><path stroke="#836141" d="M35 272v166.5l89-51.5V220.5L35 272zM35 313.5l89-51M35 355l89-51M35 396l89-51M81 411.5V370"/><path fill="#fff" d="M232 200v-79.5L338 60v79l-106 61z"/><path fill="#303030" d="M236 193v-70l98-56.5V137l-98 56z"/><path fill="#E0E0E0" d="M261.5 137v-17.5l15-8V128l-15 9z"/><path fill="#fff" d="M255 149v-17.5l15-8V140l-15 9zM286.5 153v-17.5l15-8V144l-15 9z"/><path fill="#96B654" d="M68 314v-8l6.5 3.5v7.5l-6.5-3z"/><path fill="#85A348" d="M74.5 302l-6.5 4 6.5 3.5 6-4-6-3.5z"/><path fill="#ABCE61" d="M74.5 317v-7.5l6-4v7.5l-6 4z"/><path fill="#E73238" d="M86 306v-8l6.5 3.5v7.5l-6.5-3z"/><path fill="#C4363A" d="M92.5 294l-6.5 4 6.5 3.5 6-4-6-3.5z"/><path fill="#FF555B" d="M92.5 309v-7.5l6-4v7.5l-6 4z"/><path fill="#E73238" d="M45 321v-8l6.5 3.5v7.5l-6.5-3z"/><path fill="#C4363A" d="M51.5 309l-6.5 4 6.5 3.5 6-4-6-3.5z"/><path fill="#FF555B" d="M51.5 324v-7.5l6-4v7.5l-6 4z"/><path fill="#3A9A9F" d="M83 300v-8l6.5 3.5v7.5l-6.5-3z"/><path fill="#318185" d="M89.5 288l-6.5 4 6.5 3.5 6-4-6-3.5z"/><path fill="#54C6CC" d="M89.5 303v-7.5l6-4v7.5l-6 4z"/><path fill="#E73238" d="M46 290v-8l6.5 3.5v7.5l-6.5-3z"/><path fill="#C4363A" d="M52.5 278l-6.5 4 6.5 3.5 6-4-6-3.5z"/><path fill="#FF555B" d="M52.5 293v-7.5l6-4v7.5l-6 4z"/><path fill="#3A9A9F" d="M37 301v-8l6.5 3.5v7.5l-6.5-3z"/><path fill="#318185" d="M43.5 289l-6.5 4 6.5 3.5 6-4-6-3.5z"/><path fill="#54C6CC" d="M43.5 304v-7.5l6-4v7.5l-6 4z"/><path fill="#96B654" d="M48 283v-8l6.5 3.5v7.5l-6.5-3z"/><path fill="#85A348" d="M54.5 271l-6.5 4 6.5 3.5 6-4-6-3.5z"/><path fill="#ABCE61" d="M54.5 286v-7.5l6-4v7.5l-6 4z"/><path fill="#C3905F" d="M242 277.5v-44l24 13v45l-24-14z"/><path fill="#FBC592" d="M337.5 177L242 233.5l24 13 96-54.5-24.5-15z"/><path fill="#FFD8B3" d="M266 291.5v-45l96-54.5v43.5l-96 56z"/><path stroke="#836141" d="M311 226c.3.7 1.6 1.1 5-1 4-2.5 3.3-3.7 3-4"/><path fill="#E73238" d="M328 193v-8l6.5 3.5v7.5l-6.5-3z"/><path fill="#C4363A" d="M334.5 181l-6.5 4 6.5 3.5 6-4-6-3.5z"/><path fill="#FF555B" d="M334.5 196v-7.5l6-4v7.5l-6 4z"/><path fill="#3A9A9F" d="M319 204v-8l6.5 3.5v7.5l-6.5-3z"/><path fill="#318185" d="M325.5 192l-6.5 4 6.5 3.5 6-4-6-3.5z"/><path fill="#54C6CC" d="M325.5 207v-7.5l6-4v7.5l-6 4z"/><path fill="#96B654" d="M330 186v-8l6.5 3.5v7.5l-6.5-3z"/><path fill="#85A348" d="M336.5 174l-6.5 4 6.5 3.5 6-4-6-3.5z"/><path fill="#ABCE61" d="M336.5 189v-7.5l6-4v7.5l-6 4z"/><ellipse cx="270" cy="222.9" fill="#F06" rx="11" ry="10.9"/><path fill="#C41B5E" d="M261.2 216.4c-6.5 8.3 2.2 23.5 15.4 15.2-6.6 2.4-17.7-8.9-15.4-15.2z"/><ellipse fill="#FF73AB" rx="3.2" ry="1.8" transform="matrix(.6938 .72018 -.72649 .68718 275.5 218.3)"/><path fill="#FFE24A" d="M521 423.5l9-12-10-3.5 1 15.5z"/><path fill="#F06" d="M514.5 433l1-12-16.5 1.5 15.5 10.5z"/><path fill="#ABCE61" d="M491 424.5l5-15-13.5-.5 8.5 15.5z"/><path fill="#3A9A9F" d="M495 418.5l18-8-12.5-4.5-5.5 12.5z"/><ellipse fill="#D20054" rx="5.5" ry="2.4" transform="matrix(-1 0 0 1 469.5 416.1)"/><path stroke="#ABCE61" d="M471 421.5l3-11"/><path stroke="#5CBFB3" d="M471 421.5V411"/><path stroke="#F39494" d="M467 421v-12"/><path stroke="#D8D8D8" d="M469.5 421.5v-10"/><path fill="#F06" d="M475 416.1v13.4c-2.4 3.1-8.6 3.1-11 0v-13.4c0 1.3 2.5 2.4 5.5 2.4s5.5-1 5.5-2.4z"/><path fill="#000" fill-opacity=".1" d="M832.5 468l-123-264.5V440l-356 205.5 479-177.5z"/><ellipse cx="410.1" cy="260.3" fill="#000" fill-opacity=".1" rx="28" ry="13.5" transform="rotate(25.7 410 260.3)"/><path fill="#FBC592" d="M391.4 257.3L389 256l3.4-67.6 31.1 18-3.2 67.7-2.3-1.4 1.7-31.4-23.7-13.6 3.4 26.2-2.3-1.2-2.9-26-1.2-.7-1.6 31.3z"/><path fill="#C3905F" d="M392.6 256.6l-1.2.7L393 226l1.2.6-1.6 30zM397.6 228.6l-1.6-.9 3.4 26.2 1.2-.6-3-24.7z"/><path fill="#FFD8B2" d="M426 205l-2.5 1.4-31.1-18 2.6-1.4 31 18z"/><path fill="#C3905F" d="M421.5 273.2l-1.2.9 3.2-67.7 1.3-.7-3.3 67.5zM429.5 270l-1.2.7-3.5-65 1.3-.7 3.4 65z"/><path fill="#836141" d="M426 269.3l2.3 1.4-3.5-65L423 242l1.2.6 1.7 26.7z"/><path fill="#fff" d="M398.5 221l2-18 17 8.5-2.5 18-16.5-8.5z"/><path fill="#D9ACAC" d="M372.1 399.8c1.8.6 3.8 3 4.5 4.1l-4.5 5.7-2.6-2.7c-2.3-2.2-5.3 1.2-6.8 2.3-1.2.9-2.8.4-3.4 0l-5.3-5.3c-3-3 1.5-2.6 3-2.6 1.3 0 3 1.7 3.8 2.6 1.1-1 3.7-3.2 5-4.1 1.4-1.2 4-.8 6.3 0z"/><path fill="#F9CFCF" d="M366 403.2c1.9.6 3.8 3 4.6 4.1l-4.5 5.7-2.7-2.6c-2.2-2.3-5.2 1-6.7 2.2-1.2 1-2.8.4-3.4 0l-5.3-5.3c-3-3 1.5-2.6 3-2.6 1.2 0 3 1.8 3.8 2.6l4.9-4.1c1.5-1.1 4.1-.8 6.4 0z"/><path fill="#3A9A9F" d="M388 419.8c4.1-1.8 3.2-6 2.2-8l-17.3-4.5H369c-3.3 0-3.4 3.8-3 5.7.6 1.1 2.8 4 6.8 6.8 4.9 3.4 9.7 2.2 15 0z"/><path fill="#611D1D" d="M384.2 385.9c-1.3.3-5-.8-3.4-1.5l-5-1.5-2.2-5.7c.6-6 4.5-7.3 6.4-7.1 1.6.2 5.4 1.7 7.2 5.6 1.8 4-1.3 8.4-3 10.2z"/><path fill="#D9ACAC" d="M384.2 387.8v-2l-2.7-1.8-3 1.1v3.4c1.8 0 4.5-.5 5.7-.7z"/><path fill="#F9CFCF" d="M378.1 385.5c1.5 0 2.4-.7 2.7-1.1-1 0-2.2-1.5-2.7-2.3v-1.9c.3-1.2-1.1-.5-1.9 0h-1c0-.6.2-2 0-2.6-.4-.6-1.2-.5-1.6-.4 0 1.4.2 4.5.8 6 .7 2 1.8 2.3 3.7 2.3zM394.7 410.4c-1.2-.3-3.3-9-4.1-13.2l-3 .7 1 9 3.5 5.7c.6 1 4 .9 5.6.8.8-.3 2.3-1 2.6-2 .3-.8-1-1-1.8-1s-2.6.3-3.8 0z"/><path fill="#F87A5E" d="M391.3 396.4c-.3-8.4-4.9-9.3-7.1-8.6l-6.4.7-1.6 1.5-4.5-4.1-4.9 4.1c.6 1.8 4.3 6.3 6 8.3v12.8c2 2.3 4.6 3 9.5 3.4 3.9.3 7.6-2.1 9-3.4a48.3 48.3 0 01-2.6-12.8c.6 0 2-1.2 2.6-1.9z"/><path fill="#F9CFCF" d="M368.3 374.2c0 4.5 2 10 3 12l-4 3.4a22 22 0 01-2.7-6v-9.4c.1-.6 0-2.5-1.2-5.3-1.5-3.3-1-4.5 0-4.9 1-.3 2.7 1 3.4 1.6.5 1 1.5 4 1.5 8.6z"/><path fill="#D9ACAC" d="M82.5 424.1c2 .7 4 3.3 4.9 4.6l-5 6.1-2.8-2.9c-2.5-2.4-5.8 1.3-7.4 2.5-1.4 1-3 .4-3.7 0l-5.8-5.7c-3.3-3.3 1.6-3 3.3-3 1.3 0 3.3 2 4.1 3 1.2-1.1 4-3.6 5.4-4.6 1.6-1.2 4.5-.8 7 0z"/><path fill="#F9CFCF" d="M75.9 427.9c2 .6 4 3.3 5 4.5l-5 6.2-3-2.9c-2.4-2.5-5.7 1.2-7.3 2.5-1.3 1-3 .4-3.7 0l-5.8-5.8c-3.3-3.3 1.7-2.9 3.3-2.9 1.3 0 3.3 2 4.1 2.9 1.3-1.1 4-3.5 5.4-4.5 1.6-1.3 4.5-.9 7 0z"/><path fill="#2B2B2B" d="M99.8 446c4.6-2 3.5-6.6 2.4-8.7l-19-4.9h-4c-3.7 0-3.7 4.1-3.3 6.2a26 26 0 007.4 7.4c5.3 3.7 10.7 2.5 16.5 0z"/><path fill="#611D1D" d="M95.6 409c-1.3.3-5.3-.9-3.7-1.7l-5.3-1.7-2.5-6.1c.7-6.6 5-8 7-7.9 1.8.3 5.9 2 7.8 6.2 2 4.3-1.3 9.2-3.3 11.1z"/><path fill="#D9ACAC" d="M95.6 411v-2l-2.8-2.1-3.3 1.2v3.7c2 0 4.9-.5 6.1-.8z"/><path fill="#F9CFCF" d="M89 408.5c1.7 0 2.7-.8 3-1.2-1 0-2.4-1.7-3-2.5v-2c.4-1.4-1.2-.6-2 0h-1.2c0-.7.3-2.3 0-3-.4-.6-1.3-.5-1.7-.3 0 1.5.2 4.9.8 6.6.9 2 2 2.4 4.1 2.4zM107.2 435.7c-1.4-.3-3.6-9.7-4.6-14.4l-3.3.8 1.3 9.9 3.7 6.2c.6 1 4.4 1 6.2.8.8-.3 2.5-1 2.8-2 .4-1-1.2-1.3-2-1.3-.8.1-2.8.3-4.1 0z"/><path fill="#3A9A9F" d="M103.5 420.5c-.4-9.3-5.4-10.2-7.9-9.5l-7 .8-1.6 1.7-5-4.6-5.3 4.6c.7 2 4.7 6.8 6.6 9v14c2 2.5 5 3.3 10.3 3.7 4.3.4 8.3-2.3 9.9-3.7-.9-1.6-3.7-14-3-14 .7 0 2.3-1.4 3-2z"/><path fill="#F9CFCF" d="M78.3 396.2a36 36 0 003.3 13.1l-4.5 3.8a24 24 0 01-2.9-6.6v-10.3c.2-.7.1-2.8-1.2-5.8-1.7-3.7-1.2-5 0-5.3 1-.4 2.9 1 3.7 1.6.5 1.1 1.6 4.5 1.6 9.5z"/><circle cx="41.5" cy="384.5" r="5.5" fill="#3A9A9F"/><path fill="#30868A" d="M37.1 381.2c-3.3 4.2 1.1 11.8 7.8 7.6-3.4 1.2-9-4.4-7.8-7.6z"/><ellipse fill="#5CEBF2" rx="1.6" ry=".9" transform="matrix(.6938 .72018 -.72649 .68718 44.3 382.2)"/><circle cx="46.5" cy="333.5" r="5.5" fill="#E73238"/><path fill="#C3363A" d="M42.1 330.2c-3.3 4.2 1.1 11.8 7.8 7.6-3.4 1.2-9-4.4-7.8-7.6z"/><ellipse fill="#FF868A" rx="1.6" ry=".9" transform="matrix(.6938 .72018 -.72649 .68718 49.3 331.2)"/><path fill="#FF555B" d="M290.9 209.6l1.7 1-2.2 4.6-2.3-1.3c-.5-1.8.8-3.4 1.5-4 .2-.2 1-.4 1.3-.3z"/><path fill="#E73238" d="M289.7 213.5c.3-1.3.8-1.9 1.2-2.3 1-1 2.1-.5 2.3 0 .2.4.3 1.5-.6 2.7-.9 1.2-1.7 1.4-2 1.3-.6 0-.8-.5-1-.8v-.9z"/><path fill="#9F262A" d="M290.4 213.5c0-.9.4-1.3.6-1.6.6-.7 1.3-.5 1.5-.2.2.2.4 1-.1 1.7-.5.9-1 1-1.2 1-.4.1-.7-.2-.8-.4v-.5z"/><path fill="#C32D32" d="M292 211.6c0 1.2-1 2-1.5 2.2 0 .6 1 .9 1.8-.4.7-1.3 0-1.8-.3-1.8z"/><path fill="#A2C25C" d="M295.6 216.9l-7.6-4.4v2.9l7.6 4.4V217z"/><path fill="#94B353" d="M300.5 213l-4.9 3.9v3l17.9-9.6v-3.7l-2.4.4-2.5-2.5-6.6 3.8-1.5 4.8z"/><path fill="#A2C25C" d="M306 202.2h-1.3l4 2.3 2.4 2.5 2.4-.4-7.5-4.4z"/><path fill="#ABCE61" d="M300.5 213l-4.9 3.9-7.6-4.4 4.8-3.9 7.7 4.5z"/><path fill="#A2C25C" d="M302 208.3l-1.5 4.8-7.7-4.5 1.6-4.7 7.6 4.4z"/><path fill="#ABCE61" d="M302 208.3l-7.6-4.4 6.6-3.9 7.6 4.5-6.6 3.8z"/><path fill="#94B253" d="M293.8 216.5l-4-2.3v1.5l4 2.3v-1.5z"/><path fill="#7B9445" d="M290.2 215.5v-1l3.6 2v1l-3.6-2z"/><path fill="#54C6CC" d="M293.4 208.4l1.2-3.7 6.7 3.9-1.1 3.7-6.8-3.9z"/><path fill="#3A9A9F" d="M294 208l1-3 6.3 3.6-1 3-6.3-3.6zM301.1 212.3l1.2-3.7 3-1.8v3.2l-4.2 2.3z"/><path fill="#54C6CC" d="M305.2 209.4v.6l-4 2.3.1-.6 4-2.3z"/><path fill="#3A9A9F" d="M308.5 205l-2.2 1.2v3.1l4.2-2.4-2-2z"/><path fill="#54C6CC" d="M310.5 206.9l-2-2-.2.2 1.5 1.7-3.5 2.1v.4l4.2-2.4z"/><path fill="#FF555B" d="M300.3 215.2l1.7 1-2.2 4.6-2.3-1.3c-.5-1.8.8-3.4 1.5-4 .2-.2 1-.4 1.3-.3z"/><path fill="#E73238" d="M299 219.1c.4-1.3 1-1.9 1.3-2.3 1-1 2-.5 2.3 0 .2.4.3 1.5-.6 2.7-.9 1.2-1.7 1.4-2 1.3-.6 0-.9-.5-1-.8v-.9z"/><path fill="#9F262A" d="M299.7 219c.1-.8.4-1.2.7-1.5.6-.7 1.3-.5 1.5-.2.2.2.4 1-.1 1.8s-1 1-1.3 1c-.4 0-.6-.3-.7-.5v-.5z"/><path fill="#C32D32" d="M301.4 217.2c0 1.2-1 2-1.5 2.2 0 .7 1 .9 1.7-.4.8-1.3.2-1.8-.2-1.8z"/><path fill="#FF555B" d="M311.4 208.8l1.6 1.1-2.2 4.5-2.2-1.3c-.5-1.7.8-3.4 1.5-4 .2-.2.9-.3 1.3-.3z"/><path fill="#E73238" d="M310.2 212.8c.3-1.3.8-2 1.2-2.3 1-1 2-.5 2.3 0 .2.4.3 1.5-.6 2.7-.9 1.2-1.7 1.3-2 1.3-.6 0-.9-.6-1-.8v-1z"/><path fill="#9F262A" d="M310.8 212.8c.1-.9.4-1.3.7-1.6.5-.8 1.3-.5 1.5-.3.1.3.3 1-.1 1.8-.5.8-1 1-1.3 1-.4.1-.6-.2-.7-.4v-.6z"/><path fill="#C32D32" d="M312.5 210.8c0 1.2-1 2-1.6 2.2 0 .7 1.1 1 1.8-.3s.2-1.8-.2-1.9z"/><path fill="#F9CFCF" d="M473.4 326.5a84.6 84.6 0 01-14.8 5.4 306 306 0 0016.4-20.5c.9-2 4.5-1.3 4.1 0-.3 1 1.3 5 2 7 4.2-.5 4.2 4 3.8 4.9-.4.6-6.2.5-9 .4-.2.4-.9 1.5-2.5 2.8zM454.5 324.9c-6.5 7.4-11.8 1.6-6.5-5l3.3-2.4 5.7 5-2.5 2.4z"/><path fill="#F9CFCF" d="M462.3 329.3c-7.7 7.2-14 1.6-7.7-4.9l3.9-2.4 6.7 4.9-2.9 2.4z"/><path fill="#28476A" d="M448 320l10.2-8.2 17.7 4c0 1.3-.5 5.8-1.7 7.5-1 1.3-8.3 4.9-11.9 6.5-1.3-7.5-5.7-6.4-7.8-4.9.7-5.2-4-5.5-6.5-5z"/><path fill="#F06" d="M464 289.2c-4.6-2.3-7.7 1.8-8.6 4.1v5.8h2.8v12.7c3.6 5.9 9.7 6.5 12.3 6.1 2.3 0 4.5-1.3 5.4-2 .6-1.7-.6-4-1.3-5v-9c1.7-5.2-1.7-9.2-3.7-10.6h-7v-2z"/><path fill="#E9B4B4" d="M464 291.3v-2l7-2.5v4.5c-.2.4-1 1.3-3 1.6-1.9.4-3.5-1-4-1.6z"/><path fill="#412008" d="M466.8 271.2c-4.2.7-5.3 6.8-5.3 9.8l8.2-.8.4.8 2 .5-.8 3.2 1.3-.8 1.2-.4h.8v2.5l-.8 1.2H471v4h5v-4.8l2.4-4.5v-5.4c-2.4-4.5-6.1-6.1-11.5-5.3z"/><path fill="#F9CFCF" d="M461.1 282.3c0-1.6.8-2.9 1.8-3.9.9-.9 2.5-.5 3.6.2l1.6.8 1.6.8c.3.5.8 1 1.3 1l1.2.3-.9 3.2 1.3-.8 1.2-.4h.8v2.5l-.8 1.2h-3.3c-.4.4-1.4 1.4-2.4 2-1.3.9-4.5 0-5.8-.8-1.2-.8-1.2-2.8-1.2-6.1zM464.8 308.1c.6-4.6-2.5-4.7-4.1-4.1-5 2-12.7 3.3-13.5 2.5-.7-.7-1.7-.9-2-.9-.6.6-1.9 1.7-2.5 1.7-.7 0-1.1-.6-1.3-.8-1.3 1-.2 3.6.4 4.9h10.3c4.6.3 10.4-2 12.7-3.3zM442.2 293.3c.7.4 9 .2 13.2 0v5.8c-4.7-.6-14.2-1.7-15.2-1.7-1.2 0-3.3-2-5-4-1.6-2.1 4.6-2.5 5-2.5.4 0 1.2 2 2 2.4z"/><path fill="#3A9A9F" d="M401.3 358.4c-4.4 1.1-4-1.7-3.3-3.3.6-.8 6.6-4.1 9.6-5.7 3.8 0 4.5 1.7 4.4 2.5l-10.7 6.5zM392.1 353.8c-4.4 1.1-4-1.7-3.3-3.3.6-.8 6.6-4.1 9.6-5.7 3.8 0 4.5 1.7 4.4 2.5l-10.7 6.5z"/><path fill="#E9B4B4" d="M387.3 338a37 37 0 011-8.6l6.6.3-.3 4.6c-.8 1-1.4 5.5-1.7 7.6v7.5c-1 1.3-3 1.4-4 1.3-.1-.2-.6-1.4-.6-4.6 0-4-.6-5.9-1-8.2z"/><path fill="#F9CFCF" d="M397 341.1c-.3-2 .5-7.1.9-9.4l6.2.3-.3 5.1c-.7 1.2-1.3 6-1.5 8.4v8.4c-1 1.4-3 1.5-3.8 1.4-.2-.2-.6-1.6-.6-5 0-4.5-.7-6.6-1-9.2z"/><path fill="#3A9A9F" d="M386 327.7c-.2-1.3 1.5-10.2 2.3-14.5l16.5.7c0 1.8 1.3 12.2 2 17.1-3 3.2-8.3 2.2-10.6 1.3V329c-3.7 3.4-8.3.6-10.2-1.3z"/><path fill="#EFC7C7" d="M410.7 289.9c-4.2 3.6-7 4-7.9 3.6 1.2.7 3.7 2.3 4 2.3l5.9-3.3-2-2.6z"/><ellipse cx="419.3" cy="288.8" fill="#3A9A9F" rx="9.9" ry="9.8"/><path fill="#318185" d="M411.4 283c-6 7.4 2 21 13.8 13.6-6 2.1-15.9-8-13.8-13.7z"/><ellipse fill="#54C6CC" rx="2.9" ry="1.6" transform="matrix(.6938 .72018 -.72649 .68718 424.2 284.6)"/><path fill="#F9CFCF" d="M421.2 297.1c-1.3 1.6-8.6 1.8-12.1 1.6l-2.3 4.7c4.7 1 12.2-2.2 15.4-4a9 9 0 006-2c2.3-1.8-.4-1.8-2-1.6-.9.4-2.7 1.2-2.7.6 0-.5 1.1-1.7 1.7-2.3-.5 0-1.5.2-2 .7l-2 2.3z"/><path fill="#F87A5E" d="M386.7 296.8c-.8-6.3 4.5-7 7.2-6.6l7.3 3.3c2.9-.5 6.7 2.4 8.2 4 .3 1.5-1.7 4.8-2.6 6.2h-2v10.2c-10.3 4.7-15.3 1.5-16.5-.7l-.6-13.1-1-3.3z"/><path fill="#E9B4B4" d="M401.2 293.5c-4.8.5-7-2.4-7.6-4h7.6v4z"/><path fill="#F9CFCF" d="M405.1 287.9c-2.9 3.7-7.6 2.8-9.5 2l1.6-12.2 7 .3c1.2 2.1 1.1 7.5 1 9.9z"/><path fill="#611D1D" d="M389.6 283.6c-2.3-5 2-9.8 4.3-11.5 1.3-.3 4.7.1 6.3.3v.7h5.2v4s-.6.5-2 1.2c-1.2.8-1.1 2.6-1 3.3v3c-2-2.1-3.4-.4-3.9.7v2.6c0 2-2.6 2.2-4 2-.6 0-2.5-1.3-4.9-6.3z"/><path fill="#FF555B" d="M177.3 344.5c.9 0 1.2-3.2 0-4.5h-2.5c-2-.4-2.8 1.5-3 2.5-1 2.5 2 2 5.5 2z"/><path fill="#F9CFCF" d="M178.3 332.5c.8-3.2 2-9.7 2.5-12.5l-4-2.5c-1.2 3.2-1.8 16.7-2 23 0 2 2.5 1.5 2 0 .2-1.3.7-4.8 1.5-8z"/><path fill="#FF555B" d="M196.3 344c.4-2-2.5-3.5-4-4-1.2-.3-3.7-1-4.5-1-1 0-2 0-2 1 0 .8 3.3 2 4.5 3 2.2.8 5.6 3 6 1z"/><path fill="#F9CFCF" d="M191.8 334l2-15-6 1.5a66.9 66.9 0 000 18.5c1 .8 3.4 2.6 5 3 1.6.4-.3-1.8-1.5-3 0-.7.1-2.6.5-5z"/><path fill="#3A9A9F" d="M201.3 313c.1-1.8-5.7-8-9-11h-13.5l-10 12c14 12 32 5 32.5-1z"/><path fill="#F9CFCF" d="M170.3 295.5c0-3.6 5.7-9.5 8.5-12v7c-4 2-4.5 6.5-4.5 8 0 1.2 1.7 6.8 2.5 9.5.5 0 1.7.1 2.5.5s.7 1.2.5 1.5h-2c0 .3.1 1.2.5 2 .5 1-1 1-2 1-.8 0-1.3-2.3-1.5-3.5a46.5 46.5 0 01-4.5-14zM195.3 291.5c-.8 0-5.3-5-7.5-7.5l4.5 12h4.5c1.6 0 8-3.7 11-5.5v-.5h-2v-3h-1.5c0 .5-.2 1.7-1 2.5-1 1-7 2-8 2z"/><path fill="#FF555B" d="M192.3 301c1.6-10.4-3.7-17-6.5-19-4.4 0-6.5 1-7 1.5V302c4.8 4.8 11 2 13.5 0v-1z"/><path fill="#D9ACAC" d="M185.8 284.5V279h-4.5v5.5c1.2 1.6 3.5.7 4.5 0z"/><path fill="#2E221B" d="M193.3 262.5c.8 1.6-.3 3-1 3.5l-13 12h-4.5l-2-6.5c-12.4-.8-5-10 0-8h2l.5-3h3l-1-2c1.2-6 8.5-6 9.5 0h4.5c1 0 1 2 2 4z"/><path fill="#F9CFCF" d="M189.8 266.5l2.5-.5v9c-.8 4.8-5.7 5.3-8 5a5.9 5.9 0 01-5.5-2.5l-.5-1.5h-1.5v-1l.5-1 1-.5 1.5-1 2-.5v-1h1v-1h1.5l1-1 1.5-1.5 3 .5v-1.5z"/><path fill="#EDEDED" d="M220.3 290l-10-9h-4.5v1.5h-7v2.5l5.5 2h1.5v3h14.5z"/><ellipse cx="302.1" cy="384.5" fill="#926C48" rx="29.1" ry="16.5"/><path fill="#373737" d="M307.8 392.6a11.7 11.7 0 01-1.4-7.2l-8-2.3-1.4 1.2c-.3.3-.4 3 0 3.9.4.9 3.1 2.4 3.6 2.8.4.4 1.1 2.6 1.4 3.7 1.2 3.2 3.6 4 4.6 3.9 3.7.2 4-1.9 3.6-3-1-.5-2-2.2-2.4-3zM315.4 386c-3.9 2-6 .9-6.5 0l2-6.2h4.5c1-.1 1.8-.5 2-.7l3.8-2.3c4.1-.8 4.7 1.7 4.5 3 0 1.9-2.5 3.4-3.7 3.9a40 40 0 00-6.6 2.3z"/><path fill="#28476A" d="M311.1 379.8c-.3-.1.1-.7.4-1l5.4-5.6c3-3 6.6-8.3 8-10.6 1.7-4.8-2.7-6.8-5.2-7.3-4.8-.5-14.9 2-19.3 3.4L277.6 369c-.1.8-.4 2.3-.6 2.7-.2.5-.4 2.6.2 4.7.6 2.2 1.7 3.4 4 5.5 2.2 2.2 6.2 2 8.3 2 1.6-.1 5-2.2 6.5-3.3l1.3 1.5c1.4 1.7 4.5 2.5 6 2.7l4.2 1 3.9.6c1.8 0 2.4-1.8 2.4-2.7.2-3-2.2-3.8-2.7-4z"/><path fill="#3A9A9F" d="M306.2 340.5l-2 1c.6.9.5 5.1-1.1 7.6-1.3 2-2.4 5.3-2.8 6.7v4.8c-.2 1-2.1 2.3-3 3l-.7.6-15.1.8-6.8-11.8c.2-2.8.5-9 .9-11.3.3-2.2 6.4-7.2 9.4-9.4 3.5-1.6 11.2-4.9 13.6-4.9 3 0 3.8 2.6 4.5 3.3.5.6 2.3 6.6 3.1 9.6z"/><path fill="#701E05" d="M301 332.7c-1.4-.7-2-2.5-2.1-3.3L291 336c-7.3-1.6-9.3-14.8-7.3-21.5 5.6-9.7 15-4.6 17.2 0 2.2 4.3 1.2 10.7.4 13.3-1.4 2-.9 4.2-.4 5z"/><path fill="#D9ACAC" d="M294.5 321c1.9-.2 3.9-2.4 4.7-3.5l-3 13 .7 4.4c-1.1 2.7-4.2 2.8-5.6 2.5-3.1-.7-3.9-2.6-3.9-3.5 1.7 1.8 3.2 2.2 3.7 2.1a12.6 12.6 0 011-17c.2 0 .4.2.1.4l-.7 1.8 3-.2z"/><path fill="#F9CFCF" d="M300.4 325c1.2-4.3-.3-6.8-1.2-7.5-3.1 5.2-6.8 4.7-8.3 3.9l-1 2.8c-.4 3.4.8 5 1.4 5.4 2.8 2.8 6.7 2.1 7.3.5 0-.2.7-.9 1.8-5.1zM306.9 346.5c0-1-.8-4.2-1.3-5.7l-1.4.6.4 2c0 .6 0 2-.2 2.8-.2 1-1.6 3.9-2.4 5.3.2.4 1.4 1.4 2 1.9l3 .4c2.5.2 6.3-1.7 12.8-4 5.3-1.8 7.3-4 7.6-5 1.2 1 1.2 0 1-.6l.7-.5c.3 1.8 1.3.8.9-.3l.4-.3c.5-.5 0-1-.4-1 0-.8-.6-1-.9-1-1.8-.7-.7-.7 0-.6.8.4 2.2.8 1.9-.2-.3-1-2.1-1.5-3-1.6.4-.4 1.2-1.4 2-2 .7-.7-.1-1.2-.6-1.4-2 1.7-5.8 5.5-6 6.5-.1 1.1-.7 1.7-1 1.9-1.9 1.3-6 2.4-7.9 2.8H307zM282.4 363.2c-.1-1 .6-6.3 1-8.8a27 27 0 00-8.7-1.5c-.1 1.7 0 10 1 14.1 1.8 3.8 6.3 3.8 8.4 3.3l9.5-1.3a8 8 0 013.3.1c.4.5 4.2 1.7 6 2.3 1.2.4 1-.3.9-.7-1.7-1-1.7-1.4-1.5-1.6l2 1.5c1.1 1 1.1-.2 1.1-.3l-1.8-2.3 1.6 1.6c1.1 1.3 1.1 0 1-.5 0-.4-1.4-1.9-2.1-2.6l2 1.6c.6.6.8.1.9-.2 0-.9-1.5-2-2.3-2.4l.7-.3c.7-.2 0-.9-.4-1.2l-2 .2-.6-.5c-1.1-.6-5.7-.2-7.8.1-1.8.5-8.9-.2-12.2-.6zM209 423l26 15 9.2-5.2 9-5.8-25.3-15-18.9 11z"/><path fill="#FFF4B9" d="M210.9 423.2l23.8 13.7 8.4-4.8 8.2-5.2-23.1-13.7-17.3 10z"/><path fill="#F06" fill-rule="evenodd" d="M231 415.4c-.5-.3-1.1-.4-2-.3-.8 0-1.4.2-1.8.4a1 1 0 00-.4.4v.5c0 .3.3.6.5.8l1 .7.1-.4-.8-.6c-.2-.2-.4-.4-.4-.6v-.2l.2-.2a4 4 0 011.6-.4 3 3 0 011.8.3c.5.2.7.5.9 1 .3.8.2 1.8 0 2.5-.7.5-2.5 1.1-4.8 0-1.2-.6-2.2-1-3-1-.8-.2-1.4-.1-1.7 0-.3 0-.9 0-1.4.3-.5.2-1 .6-1.3 1.2-.3.6-.6 1-.9 1.2l-1.3.5-1.1.3c-.4.2-.8.4-1 .7a1 1 0 00-.3.5c0 .2 0 .4.2.7.2.4.7.9 1.7 1.4 3 1.8 5.3 2.2 6.2 2.1.7.1 1.7.4 2.7.9 1 .4 2 1.1 2.5 2 .5 1 1.4 1.9 2.3 2.6l2.4 1.5c.6.1 1.3.2 1.9 0 .3 0 .5-.3.7-.6l-.1-1.2c-.2-.6-.4-1-.4-1.4v-.6l.2-.1h.9c.6 0 1 .2 1.2.4l.2.1c.1.1.3.3.6.3s.6-.1 1-.4c.8-.5 1-1 1-1.4 0-.4-.3-.7-.6-.8v.4c.1 0 .3.2.3.4s-.2.6-1 1c-.3.3-.5.4-.7.4l-.4-.2-.1-.1c-.3-.2-.7-.6-1.5-.6h-1c-.2.1-.4.2-.5.5-.1.2 0 .4 0 .8l.4 1.4c.2.4.2.7 0 1 0 .1-.1.3-.4.3-.4.2-1 .2-1.5 0-.6-.2-1.5-.7-2.3-1.4a8.3 8.3 0 01-2.3-2.5c-.5-1-1.6-1.7-2.6-2.2-1-.5-2.1-.8-2.8-.9-.8 0-3.2-.3-6.1-2-1-.6-1.4-1-1.6-1.3l-.1-.5.1-.3 1-.5c.3-.2.7-.3 1-.3l1.5-.6 1-1.3a2 2 0 011-1 4 4 0 011.4-.3c.2-.1.7-.2 1.5 0 .8 0 1.8.4 3 1 2.4 1.2 4.5.5 5.2 0v-.1h.1c.2-.9.3-2 0-3-.2-.5-.5-.9-1-1.2z" clip-rule="evenodd"/><path fill="#3A9A9F" fill-rule="evenodd" d="M220.4 420.8c-.3.4-.2 1 0 1.4.3.3.7.5 1 .5a3.2 3.2 0 001.2 0 10.9 10.9 0 001 1.4h.3c.2 0 .2-.1.2-.2h.1l.3-.2h.8c.2.8.8 2.4 2.7 3.2l.8.3c.7.7 1.8 1.3 2.5 1.6l.2-.3c-.6-.3-1.4-.7-2-1.3.4 0 .7 0 1-.2.7-.3 1.1-.8 1.4-1.2v-.3l-.4-1-.7-.9c-.3-.2-.7-.3-1-.2-.4 0-.8.3-1.2.8a2 2 0 00-.5 1.6c0 .3.1.6.3.8h-.2a4 4 0 01-2.4-3c0-.2-.2-.3-.4-.4l-1 .1-.4.2-.2.2-.2-.2-.7-1c-.1-.2-.3-.2-.4-.2h-1c-.3 0-.5-.1-.7-.3-.2-.4-.2-.7 0-1 .1-.3.5-.6 1.3-.8l-.1-.4c-.8.2-1.4.5-1.6 1zm3.5 3zm5.1 3c-.3-.3-.5-.7-.6-1 0-.5.1-.9.5-1.3.4-.5.7-.7 1-.7.2 0 .4 0 .6.2.3.1.5.4.6.7l.4 1c-.2.3-.6.7-1.1 1-.4.1-.8.2-1.4.1z" clip-rule="evenodd"/><path fill="#F9CFCF" d="M217.2 432l-26 15-9.2-5.2-9-5.8 25.3-15 19 11z"/><path fill="#FFF4B9" d="M215.3 432.2l-23.7 13.7-8.5-4.8-8.2-5.2 23.1-13.7 17.3 10z"/><path fill="#F9CFCF" d="M206 448l26 15 9.2-5.2 9-5.8-25.3-15-18.9 11z"/><path fill="#FFF4B9" d="M207.9 448.2l23.8 13.7 8.4-4.8 8.2-5.2-23.1-13.7-17.3 10z"/><path fill="#C4363A" d="M233.3 453c1.4.7 2.3 2.9 2.6 3.9l3.8-2.1c-1.7-1.7-5-3-6.4-3.4v-.9h-2.5v.9h-3.4v.8c1.4 0 4.6.2 6 .9z"/><path fill="#ABCE61" d="M234.2 457.7v3l12.3-6.8-3.8-.8-8.5 4.6zM227.4 452.2v-.8h3.4v-.9h.8v-.8h.9V448h-1.7v-1.7h.8v-.9h-.8v-.8h-.9v-.9h-4.2v-.8h-.9v-.9h-2.5v.9h-.9v.8h-2.5l-.9.9v1.7l.9.4v.4h.8v.9h-.8v1.7h2.5v1.7h2.6v.8h.8v.9h2.6v-.9z"/><path fill="#F9CFCF" d="M359.2 490l-26-15-9.2 5.2-9 5.8 25.3 15 19-11z"/><path fill="#FFF4B9" d="M357.3 489.8l-23.7-13.7-8.5 4.8-8.2 5.2 23.1 13.7 17.3-10z"/><path fill="#C4363A" d="M332 485c-1.4-.7-2.4-2.9-2.6-3.9l-3.9 2.1c1.7 1.7 5 3 6.4 3.4v.9h2.6v-.9h3.4v-.8c-1.4 0-4.6-.2-6-.9z"/><path fill="#ABCE61" d="M331 480.3v-3l-12.3 6.8 3.9.8 8.5-4.6zM337.9 485.8v.8h-3.4v.9h-.9v.8h-.8v1.7h1.7v1.7h-.9v.9h.9v.8h.8v.9h4.3v.8h.8v.9h2.6v-.9h.8v-.8h2.6l.8-.9v-1.7l-.8-.4v-.4h-.9v-.9h.9v-1.7h-2.6v-1.7h-2.5v-.8h-.9v-.9H338v.9z"/><path fill="#F9CFCF" d="M324.3 426c0-1.3 4-4.8 6-6.4v6.3h-6z"/><path fill="#F9CFCF" d="M317.6 426.1c1.9-1.2 8.7-1 11.9-.8l-2.8 12.3c-13-2.4-11.5-9.9-9-11.5z"/><path fill="#28476A" d="M344.5 439.8c7.6-.6 7.6-8.4 6.7-12.2a48.6 48.6 0 00-16.2-2.4c-14-.6-14 6-12.3 9.5 3.2 4.3 12.3 5.9 21.8 5.1z"/><path fill="#F9CFCF" d="M354.8 425.1a40 40 0 01-4.8-11.8h-1.2l.8 12.6 2 1.6c1 1.6 3.6 1.5 4.7 1.2 3.2.3 5-2 5.6-3.2.3-1.2-4.6-.7-7.1-.4z"/><path fill="#F06" d="M351.6 410.5c-.3-6-5.4-8-8-8.3l-5.4.8c-10.7 3.6-8.7 22.1-8.7 22.5 0 .4 4 3.2 4.3 3.6.4.4 4 2.4 8.3 2.4 3.5 0 7.8-2.7 9.5-4-1.3-.6-2.1-9.7-2.4-14.2h1.6c.6-.3.8-2 .8-2.8z"/><path fill="#F9CFCF" d="M329.9 416.5c1 1.5 4.8 1.7 6.7 1.5l-4 15v7.2c-.6 2.5-4 3.1-5.5 3.1-4.4-1.9-.8-5.2 1.6-6.7l1.2-20.1z"/><path fill="#611D1D" d="M347.2 385.6c-8.5-6.3-15.4 0-13.8 6l2.8 8.3h7.5c6.6-1 7.1-10.7 3.5-14.3z"/><path fill="#F9CFCF" d="M343.7 402.2V400c-2.2.3-4.9-.7-6-1.2-1.8-1-3.1-5.2-3.5-7.1h-.8v5c1 4.2 3.6 4.4 4.8 4v2.4c.6.6 4-.2 5.5-.8z"/><path fill="#C3905F" d="M639.5 378l24-13.5v33l-24 13.5v-33z"/><path fill="#FBC592" d="M548 297l115.5 67.5-24 13.5L523 311.5l25-14.5z"/><path fill="#FFD8B2" d="M523 341.5L639.5 411v-33L523 311.5v30z"/><path fill="#3A9A9F" d="M576.5 370.5v-25l-42-24v24l42 25z"/><rect width="13" height="4" fill="#494949" rx="2" transform="scale(-1 1) rotate(-30 369.6 1218)"/><path fill="#3A9A9F" d="M626.5 399.5v-25l-42-24v24l42 25z"/><rect width="13" height="4" fill="#494949" rx="2" transform="scale(-1 1) rotate(-30 398.7 1325.8)"/><path stroke="#FF555B" stroke-width="2" d="M333 486l-8-8.5"/><path fill="#F9CFCF" d="M337 470.5a40.7 40.7 0 00-8.5-13c.4 4.5 1.4 13.7 3 14.5 2 1 4 3.5 4 5s0 4-1 4-1 2 .5 2c1.2 0 1.5 1.3 1.5 2h-1c-1.2 0-.8 1.7-.5 2.5l4 .5c1 0 1-3 1.5-5s-2-7-3.5-12.5z"/><path fill="#FF555B" d="M316.5 457.5c-.8-.4 1-2.2 2-3l9 2c1.6.8 3.4 5 4 7v8.5c-4.6.3-14 .9-14 .5l1-5V460c0-1.5-1-2-2-2.5z"/><path fill="#611D1D" d="M313 442c-2.8 3.2.2 7.3 2 9v2l2.5.5 13-8.5c0 .2.2-.3 1-3.5s-4.6-5-7.5-5.5c.4-3.2-4.1-4-6.5-4-5.2.8-4.1 5.7-3 8l-1.5 2z"/><path fill="#F9CFCF" d="M315 453.5c-2 0-1-2.5.5-3v2h2V450l6-1v-.5h1v-1h1.5v-1h2.5v-1l2-.5v7.5c-.8 4.8-6 5-8.5 4.5-1.5-1.2-5-3.5-7-3.5zM309.5 479c-2.4-5.6 3.7-17.3 7-22.5 2 .8 2.2 2.3 2 3v8l-1 5-2 4c4.8 3.2 9.4 3.7 11 3.5 5.2-.8 5.2.7 4.5 1.5-.5 0-1.7.1-2.5.5s0 1.2.5 1.5c2.8 0 2.5 2 2 3h-5.5c-1.2 0-2.1-2-2.5-3-3.5.8-11 1.1-13.5-4.5z"/><path fill="#8DA952" d="M557.5 303c1 1.2 1.2 4 1.2 5.3l-1.8-4.2.6-1.2z"/><path fill="#F06" d="M546.9 310.4c1.4 3.9 6.7 3 7.3-.1l-.2-2.3-7.1.2v2.2z"/><path fill="#3A9A9F" d="M544 304c-3-7.5.3-12.7 1.3-14.8h10.5c1.9 3 3.5 10.3 1.3 15l-.4-.9-1.6 1-2 4.8c-.4.2-3.7.4-5 0-.5-.5-1.6-3.4-2.2-4.8l-1.5-1-.4.7z"/><path fill="#F06" d="M545.3 289.2c.4 5.2 11 4 10.5 0-.1-.9-3.6-4.8-5.3-6.6a43 43 0 00-5.2 6.6z"/><path fill="#8DA952" d="M548.1 309l-2.2-4.7-.7.2-3 8.1.4 5.4 2.1-1.2c0-3 1.8-6.4 3.4-7.8z"/><path fill="#ABCE61" d="M544.4 303.3l1.5 1c-2.6 3.9-3.3 10.8-3.3 13.7l-1.5-1a28.6 28.6 0 012.9-13l.4-.7z"/><path fill="#8DA952" d="M553 309l2.2-4.7.7.2 3 8.1-.4 5.4-2.1-1.2c0-3-1.8-6.4-3.4-7.8z"/><path fill="#ABCE61" d="M556.7 303.3l-1.5 1c2.6 3.9 3.3 10.8 3.3 13.7l1.5-1c.5-3.2-1.3-10.2-2.9-13l-.4-.7z"/><path fill="#F06" d="M547.1 302.5c1.7-.7.6-4.6-1.8-5.1-.7-.1-1.4.3-1.6 1-.4 1.8 1.8 4.3 3.2 4.1h.2z"/><path fill="#FF62A1" d="M546.6 302.6c1.5-.7.5-4.2-1.4-4.8-.7-.2-1.5.3-1.6 1-.4 1.7 1.6 4 2.8 3.8h.2z"/><path fill="#ABCE61" d="M545.4 301.5c-1.5-1.1-1.3-2.7-.5-2.7l1.7 2.3c-.3.7-.8.6-1.2.4z"/><path fill="#8DA952" d="M546.6 301c-.6 0-1.8-.7-1.7-2.2 1 0 1.9 1.3 1.7 2.3z"/><path fill="#E73238" d="M607.9 436.8c10.6 11.6 28.4 15.3 33.6 10.4l.7-1-.1-1.4-1.8-3.4-1.8-.8-1.8.7-4.2 1-11.2-2.5-10.4-8.1-5.5-6.7-5.1-4.5c-2.1 0-2.4 1.9-2.3 2.8.7 3.5 6.9 10.5 9.9 13.5z"/><path fill="#CA282D" d="M637.7 440.9c3.8.8 4.1 4.6 3.8 6.3l1.6-1c-1.3-7-4.1-6.5-5.4-5.3zM604.6 426c-2.2-4.2-4.4-5.1-5.2-5 2-2.5 4.5.7 5.5 2.6.7 1.7 5.9 7 8.4 9.4a25.7 25.7 0 0024.4 7.9c-3.7 2.8-10.5 1.5-13.5.5-7.9-1.8-16.3-11-19.6-15.3z"/><path fill="#E73238" d="M599.9 442.5c10.6 11.6 28.4 15.3 33.6 10.4l.7-1-.2-1.4-1.7-3.4-1.8-.8-1.8.7-4.3 1-11.1-2.5-10.4-8.1-5.5-6.7-5.1-4.5c-2.1 0-2.4 1.9-2.3 2.8.7 3.5 6.9 10.5 9.9 13.5z"/><path fill="#CA282D" d="M629.7 446.6c3.8.8 4.1 4.5 3.8 6.3l1.6-1c-1.3-7.1-4.1-6.5-5.4-5.3zM596.6 431.7c-2.2-4.2-4.4-5.1-5.3-5 2-2.5 4.6.7 5.6 2.5.7 1.8 5.9 7.1 8.4 9.5a25.7 25.7 0 0024.4 7.9c-3.7 2.8-10.5 1.5-13.5.5-8-1.8-16.4-11-19.6-15.4z"/><path fill="#E73238" d="M592.8 415.7c-2-5-.8-7 0-7.5l2.6-.6 4 2.6c-1 3.6-3.4 10.9-3.5 10.8-1.4.8-3 .6-3.6.4.8-.8.7-4.1.5-5.7z"/><path fill="#CA282D" d="M592.8 408.2c2.2-2.6 5.9-.2 7.5 1.3l-1.5 1a8.2 8.2 0 00-6-2.3z"/><path fill="#FBC592" d="M622 447.5l-1.4.5V435h1.5v12.6z"/><path fill="#C3905F" d="M611.2 412.7c6.7 3.7 10.4 2.6 11.5 1.8V426l-8.5 2.5-9.2-4.5-1.4-8.3 7.6-3z"/><path fill="#DBA46F" d="M606.3 415.8c.9.9 9.6 1.8 13.8 2.2l2.1-4c-3 .4-8.6-.8-11-1.3-1 .2-4 2-5.2 2.8l.3.3z"/><path fill="#FBC592" d="M611.2 412.7c-2.5 1-4.4 2.4-5 2.9l-9-3.3c1.2-2.4 5-4 7-3.7l7 4z"/><path fill="#FFD8B2" d="M625.2 442.1l3.3.8.7-.8-.3-12h-3.7v12z"/><path fill="#FBC592" d="M629.8 431c2.6-1.6 3.8-6.3 4.1-8.5V419h-6.4l.6 11.7.4 12.2 1.3-.8v-11z"/><path fill="#FFD8B2" d="M640 428.6c-1.1.5-3.8.8-4.5-1.8l-.8-2.3c-1-.2-3.3-1.2-4-4-.6 0-1.6.6-1.5 2.8.9 3.6.5 11-8.6 12.1V448c-.7 0-2.3-.2-3.4-.8v-12.7l-12.9-5.3-1 9.9c-1-.8-3-2.5-3.3-3l1-7.5c-2-2.5-5.7-8-6.1-10.1 0-1.5.5-5 2.7-6.5-.2.2 1.3-2 8.6 3.6v7.3c3 3 11.7 6.3 12.6 0a21 21 0 016.6-12.3l5.2-2.6 9.2 7.6 1 9.6-.7 3.4z"/><path fill="#FBC592" d="M641.4 412l-2.9-1.7c-2-1.3-4.2-3.7-8-3.3l-5.1 3.6a8.8 8.8 0 019.6 2.8l2.9 1.5-1.1 1.6 3.3 12 2-1.7-2-13.4 1.3-1.4z"/><path fill="#E73238" d="M618.3 417.8l3-2.7a23 23 0 01-8.6-1.6l-4.5 2.9c-3.5 9.3 10.6 13 10 1.4z"/><path fill="#FBC592" d="M605.1 438.7l-1.8.4 1-10 1.5.7-.7 9z"/><path fill="#F8494F" d="M608.1 416.5l10.3 1.5 2.8-2.9c-2.1 0-6.7-.7-8.5-1.7l-4.6 3.1z"/><path fill="#96B654" d="M623 358v-8l6.5 3.5v7.5l-6.5-3z"/><path fill="#85A348" d="M629.5 346l-6.5 4 6.5 3.5 6-4-6-3.5z"/><path fill="#ABCE61" d="M629.5 361v-7.5l6-4v7.5l-6 4z"/><path fill="#E73238" d="M607 356v-8l6.5 3.5v7.5l-6.5-3z"/><path fill="#C4363A" d="M613.5 344l-6.5 4 6.5 3.5 6-4-6-3.5z"/><path fill="#FF555B" d="M613.5 359v-7.5l6-4v7.5l-6 4z"/><path fill="#3A9A9F" d="M625 351v-8l6.5 3.5v7.5l-6.5-3z"/><path fill="#318185" d="M631.5 339l-6.5 4 6.5 3.5 6-4-6-3.5z"/><path fill="#54C6CC" d="M631.5 354v-7.5l6-4v7.5l-6 4z"/><path fill="#564233" d="M586.3 335.3c2.2-.7 2.9-3.1 2.9-4.2l-2.5-8.5-6.5-.7-1.5 5.2-2.4.8-2.3.1 2.2 6.7 2.4-1.4 3.7 4.2 4-2.2z"/><path fill="#715541" d="M579 326.2l1.2-4.1-.6-.6a12 12 0 00-2.7 2.8c-.8 1.7 1 2 2 1.9zM591.5 331.4c1.3-2-2-7-3.7-9.3l-1.9 1c-1.9 5.4 3.9 10 5.6 8.3z"/><path fill="#815F47" d="M578 317.4a6 6 0 1012 0 6 6 0 00-12 0z"/><path fill="#564233" d="M583.6 311.3c.5 1.5-.2 1.8-.5 1.7l-2.8-4h.7c.7.2 2.2.8 2.6 2.3z"/><path fill="#715541" d="M580.3 312.9c.5.4 2.2.5 2.8.1.2-1.3-1-2.8-1.5-3.4-1.3-1.1-2-.2-2.2.4-.3 1 .5 2.4.9 2.9z"/><path fill="#303030" d="M580.8 312.7c.1-.3 1.3-.3 1.5 0 .2-.5 0-1.3-.2-1.7-.9-1.5-1.7-1-2-.7-.4.8.3 2 .7 2.4z"/><path fill="#303030" fill-rule="evenodd" d="M583.9 319.3l.2.8h.3c0-.4-.1-.7-.3-1a2 2 0 00-.5-.6c-.2-.1-.4-.2-.6-.1-.3 0-.4.3-.4.7h.2c0-.3.2-.4.3-.5l.4.1.4.6zM580.4 317.3l.2.8h.3l-.3-.9a2 2 0 00-.5-.6c-.2-.2-.4-.3-.7-.2-.2.1-.3.4-.4.8h.3c0-.4.2-.5.3-.5h.3l.5.6z" clip-rule="evenodd"/><path fill="#303030" d="M580.3 319.5l1 .5c0 .4-.3.4-.4.3v1.7c.3.2.5 0 .6-.2-.2 1-1.3 0-1.5-.5-.2-.4 0-.4.1-.4 0 .4.4.8.6 1v-1.7c-.2 0-.3-.5-.4-.7z"/><path fill="#715541" d="M586.2 314.5c.3 1.1 2 2.9 2.6 3.2l1-.8-.3-2.7-2-1.4h-.7c-.8.4-.7 1.3-.6 1.7z"/><path fill="#564233" d="M588.8 317.7c2-2.2-.6-4.9-2-4.9 1.9-.4 3 1.6 3.4 2.4.7 2.2-.7 2.6-1.4 2.5z"/><path fill="#303030" d="M586.7 315.2c.4 0 1.4 1 1.4 1.6 1.2.1.9-1.3.5-2-1.1-1.7-2.2-.5-1.9.4z"/><path fill="#815F47" d="M577.3 332.2c-.3-2.5-2-4.3-3-4.2-1-.1-1.7 1.6-1 3.9 1 3.2 2.8 3 3.4 2.4.4-.2.5-1.5.6-2zM582.8 335.3c-.2-2.5-1.9-4.3-3-4.2-.9-.1-1.7 1.6-1 3.9 1 3.2 2.9 3 3.5 2.4.4-.2.5-1.5.5-2z"/></svg>