<svg xmlns="http://www.w3.org/2000/svg" fill="none" viewBox="0 0 52 60"><defs/><path fill="#C71216" d="M32.242 23.095a4.21 4.21 0 00-1.168-.31c-.735-.077-1.483-.03-2.225-.034.156-.157.316-.45.468-.447 1.333.031 2.653.088 3.992.266 1.504.2 2.471.643 4.06 1.207.07.024.245.085.31.12 2.766 1.464 5.434 3.025 7.47 5.524 1.35 1.655 2.548 3.36 3.38 5.325 1.202 2.837 1.42 5.8 1.17 8.822-.047.578-.148 1.15-.254 1.845-.036.236.02.62-.218.625l-1.593.245c-.284.005-.189-.657-.174-.942.09-1.688.25-3.38.181-5.062-.068-1.653-.167-3.345-1.136-4.838-.306-.474-.2-1.197-.448-1.728-1.79-3.816-4.518-6.755-8.29-8.688-.73-.374-1.46-.749-2.212-1.076-.088-.038-.319-.158-.557-.188-.593-.304-1.58-.562-2.756-.666z"/><path fill="#3D3434" d="M51.375 46.634c-.073.204-.193.405-.21.614-.056.722-.465.945-1.134.93-.52-.013-1.04.055-1.56.087-1.442-.35-2.492.11-3.091 1.5-.068.158-.15.31-.226.463l-4.58 4.754c-.326.213-.654.422-.977.639-7.35 4.927-15.125 5.721-23.264 2.257-4.29-1.825-7.667-4.813-10.18-8.738-.459-.717-.931-1.025-1.79-.942-.82.08-1.656-.038-2.486-.038-.603 0-.997-.208-1.089-.852-.27-1.895-.772-3.787-.787-5.683-.043-5.59 2.153-10.339 5.896-14.42 1.921-2.095 4.257-3.587 6.828-4.75.79-.359 1.718-.63 2.28-1.227.899-.956 1.842-1.972 2.05-3.393.036-.247.202-.48.327-.71 1.71-3.166 4.482-4.632 7.96-4.961l1.319.018c.26.026.522.043.782.077 3.806.5 6.928 3.134 7.757 6.66.365 1.55 1.26 2.484 2.715 3.016.9.328 1.802.695 2.632 1.168 7.31 4.158 11.27 10.372 11.352 18.863.015 1.552-.34 3.111-.524 4.668zm-3.94-.767l1.95-.036c.126-.89.258-1.573.315-2.262.25-3.023.032-5.986-1.17-8.822-.832-1.966-2.03-3.67-3.38-5.325-2.061-2.53-4.767-4.098-7.569-5.578-1.547.047-2.73-1.068-4.27-1.274-1.34-.178-2.66-.235-3.993-.266-.152-.004-.313.29-.468.447-.082.153-.208.298-.24.46-.49 2.51-.49 5.028.102 7.51.949 3.973 2.848 7.431 5.899 10.196 3.634 3.295 7.85 5.112 12.824 4.95zm-43.037 0c2.19.115 4.282-.232 6.359-1.006 2.456-.916 4.688-2.134 6.59-3.935 1.71-1.62 3.07-3.523 4.195-5.569 1.937-3.524 2.33-7.354 1.935-11.29-.053-.532-.383-1.036-.586-1.553-.171-.082-.345-.238-.514-.233-1.188.041-2.344.07-3.549.361-1.399.338-2.794.637-4.153 1.143a18.53 18.53 0 00-6.03 3.693c-1.431 1.3-2.655 2.79-3.752 4.41-1.939 2.865-2.745 6.032-2.83 9.418-.027 1.12.16 2.247.258 3.37.108 1.216.748 1.58 2.077 1.19zm37.038 4.204c1.114-.223 1.162-1.168 1.427-1.909-.776-.264-1.445-.559-2.144-.715-1.596-.357-3.008-1.118-4.366-1.964-2.036-1.268-3.91-2.728-5.465-4.604-1.448-1.748-2.495-3.71-3.436-5.741-.476-1.028-.835-2.11-1.245-3.167-.186-.267-.292-.129-.357.015-.316.702-.643 1.398-.942 2.107-.168.397-.263.826-.438 1.22-1.534 3.432-3.67 6.412-6.705 8.678-.952.71-1.671 1.722-2.898 2.098-1.214.373-2.379.904-3.57 1.354-.466.176-.934.377-1.42.47-.784.15-1.019.468-.572 1.12.38.551.93.985 1.405 1.47 1.953 1.69 3.843 3.44 6.25 4.54 1.822.834 3.704 1.488 5.648 1.75 1.695.23 3.42.38 5.19.172 1.873-.22 3.7-.5 5.445-1.18 3.183-1.243 5.982-3.064 8.193-5.714zM24.02 9.191c-1.01-1.177-2.008-2.366-3.04-3.524-.28-.314-.665-.533-1.002-.796-1.593-1.534-3.5-2.528-5.624-3.043-1.44-.35-2.936-.526-4.278.431-.332.31-.764.564-.98.94-.895 1.57-.691 3.108.285 4.581l.376.833C7.133 8.52 5.097 5.183 6.95 2.43 8.008.858 9.576.17 11.396.029c2.176-.168 4.127.407 6.076 1.477 2.944 1.616 5.004 3.982 6.73 6.744.067.107 1.316 2.378 1.358 2.501-.104.193-1.437-1.75-1.54-1.56z"/><path fill="#3D3434" d="M24.02 9.191l.312-.573 1.663 2.893c.913-1.59 1.44-3.343 2.75-4.566l.355.157c-.107.346-.165.718-.331 1.032-.343.647-.742 1.264-1.118 1.893l-.991 2.153-1.318-.018-.673-1.482-.65-1.489z"/><path fill="#F1F1F1" d="M42.46 7.903l-.101.022-.08-.188.182.166z"/><path fill="#E73238" d="M41.436 50.07c-2.211 2.65-5.01 4.472-8.194 5.714-1.745.681-3.571.961-5.445 1.18-1.772.208-3.495.058-5.19-.17-1.944-.263-3.826-.917-5.648-1.75-2.406-1.101-4.296-2.85-6.25-4.54.165-.155.304-.373.5-.452 1.123-.455 2.284-.824 3.387-1.32 2.07-.931 3.976-2.1 5.722-3.596 2.292-1.964 4.092-4.24 5.318-6.986.091-.205.227-.391.404-.69.197.406.34.675.46.952.803 1.848 1.914 3.462 3.295 4.95a23.555 23.555 0 005.586 4.426c1.88 1.079 3.865 1.98 6.055 2.283zm-13.423-6.288v-.016c-.174 0-.352.022-.523-.004-.84-.128-1.015.276-1.009 1.046.016 2.02.156 2.179 2.135 2.026.418-.033.868-.069.87-.568.002-.805-.106-1.612-.191-2.415-.004-.035-.24-.062-.367-.066-.305-.01-.61-.003-.915-.003zm-4.052-.006c-1.444-.004-1.444-.004-1.451 1.23-.012 1.828-.012 1.828 1.314 1.828 1.434 0 1.527-.095 1.534-1.545.008-1.674.13-1.526-1.397-1.513zm4.087 6.89l.027-.103c.13 0 .264-.014.392.003.762.094 1.094-.159 1.075-1.002-.042-1.91.048-1.916-1.727-1.838-.26.011-.536-.053-.779.012-.183.05-.464.253-.462.382.016.73-.001 1.494.225 2.169.08.238.814.258 1.25.376zm-4.114-.1c1.633-.034 1.38.155 1.424-1.654.03-1.191.003-1.192-1.495-1.194-1.366-.002-1.366-.002-1.36 1.598.006 1.254.006 1.254 1.431 1.25zM22.891 22.514c.203.517.533 1.021.586 1.554.395 3.934.002 7.765-1.935 11.289-1.126 2.047-2.487 3.95-4.195 5.57-1.902 1.8-4.134 3.018-6.59 3.934-2.077.774-4.168 1.12-6.359 1.006-.005-.567.089-1.156-.033-1.697-.381-1.687-.265-3.35.023-5.03.323-1.876.738-3.712 1.502-5.47 1.067-2.448 2.748-4.405 4.671-6.204 1.418-1.326 3.404-2.865 6.047-3.696.407-.206.904 1.144 1.367 1.047-.192.626-.932.728-1.686.856-1.288.67-2.98 1.32-4.226 2.062-1.609.96-2.942 2.267-4.112 3.723-.634.788-.554 1.41.207 2.116.522.484 1.115.89 1.66 1.352.622.526.797 1.555 1.852 1.617.12.007.288.322.322.515.107.607.161 1.224.245 1.912l.492-.207c.077.538.32.872.931.812.386-.038.775-.035 1.163-.05a3.994 3.994 0 002.309-1.539c1.152-1.541 2.275-3.065 3.025-4.89.892-2.172 1.379-4.35 1.333-6.691-.02-.97-.34-1.549-1.256-1.808-4.952.922-2.257-.85-3.497-.503.134-.156-.995-.106.406-.456 1.885-.523 3.77-1.065 5.748-1.124zM8.498 42.684c1.088-.012 2.15-1.076 2.161-2.165.011-1.191-1.029-2.233-2.219-2.222-1.099.01-2.178 1.089-2.184 2.183-.006 1.175 1.054 2.217 2.242 2.203z"/><path fill="#EE5D61" d="M19.092 37.978c3.653-4.965 4.229-10.745 1.286-12.91-2.943-2.166-8.29.104-11.944 5.069-3.653 4.965-4.229 10.745-1.286 12.91 2.943 2.166 8.29-.103 11.944-5.069z"/><path fill="#E73238" d="M47.447 45.868c-4.974.16-9.19-1.656-12.825-4.95-3.05-2.766-4.95-6.223-5.898-10.196-.593-2.482-.592-5-.102-7.51.031-.162.157-.307.24-.46.742.004 1.489-.043 2.224.034.387.04 4.403.8 4.623 1.148-.684.277-4.51.114-4.774.874-.876 5.9 1.602 12.26 6.172 15.068.077-.283 1.28-.308 1.357-.59.266 3.584 2.907 2.514 4.724 2.922 1.946-1.172 2.5-3.593 1.181-5.442-.249-.349-.421-.752-.629-1.13-.093-.261-.11-.649-.294-.764-.844-.526-.859-.497-.118-1.17.127-.116.225-.265.351-.38.791-.724.856-1.179.158-1.937a45.352 45.352 0 00-2.357-2.368 14.3 14.3 0 00-5.172-3.11c-.27-.092-1.281-.317-1.523-.485-.17-.35-1.162-.922-1.331-1.273.158-.123 2.028-.238 2.116-.2.751.328 1.482.703 2.213 1.077 3.77 1.933 6.5 4.872 8.289 8.688.249.53.141 1.255.448 1.727.969 1.494 1.067 3.185 1.136 4.839.074 1.856-.128 3.724-.21 5.588z"/><path fill="#C71216" d="M41.436 50.07c-2.19-.302-4.175-1.203-6.054-2.283a23.556 23.556 0 01-5.586-4.425c-1.381-1.489-2.492-3.103-3.296-4.951-.12-.277-.262-.546-.459-.952-.177.3-.313.485-.404.69-1.226 2.746-3.026 5.022-5.318 6.986-1.746 1.496-3.652 2.666-5.722 3.596-1.104.496-2.264.865-3.387 1.32-.196.08-.335.298-.5.451-.475-.485-1.026-.919-1.405-1.47-.447-.652-.213-.97.573-1.12.485-.094.953-.294 1.419-.47 1.191-.45 2.356-.98 3.57-1.354 1.227-.377 1.946-1.387 2.898-2.098 3.035-2.265 5.171-5.245 6.705-8.679.176-.393.27-.822.438-1.22.3-.708.626-1.404.942-2.106.001.002.145-.392.357-.015.411 1.057.77 2.14 1.245 3.167.941 2.032 1.988 3.993 3.436 5.741 1.554 1.876 3.428 3.336 5.465 4.604 1.358.846 2.77 1.608 4.366 1.964.7.157 1.368.451 2.144.715-.265.742-.312 1.687-1.427 1.91zM22.891 22.514c-1.977.059-3.863.6-5.75 1.125-.165.045-.122.056-.328.168l-.2.073c-.462.097-.841.304-1.249.51-1.7.863-3.386 1.75-4.803 3.076-1.923 1.799-3.605 3.756-4.67 6.204-.766 1.758-1.18 3.594-1.503 5.47-.29 1.68-.405 3.343-.023 5.03.122.54.028 1.13.033 1.697-1.328.389-1.969.025-2.075-1.192-.1-1.122-.286-2.248-.257-3.37.084-3.385.89-6.552 2.83-9.417 1.095-1.62 2.32-3.11 3.752-4.41a18.53 18.53 0 016.03-3.694c1.358-.505 2.752-.804 4.152-1.142 1.205-.29 2.36-.319 3.548-.361.167-.005.342.151.513.233z"/><path fill="#F1F1F1" d="M35.873 58.7l-.13-.133c.03.006.069.004.084.021.024.03.033.072.048.108l-.002.003zM45.22 6.724l.172.19a15.931 15.931 0 01-.191-.069l.019-.12z"/><path fill="#E73238" d="M28.013 43.782c.305 0 .61-.006.915.003.128.004.363.03.367.066.084.803.193 1.61.19 2.415-.001.499-.451.536-.87.568-1.978.153-2.118-.007-2.134-2.026-.006-.77.168-1.175 1.01-1.046.17.026.347.004.522.004v.016zM23.961 43.776c1.529-.013 1.405-.16 1.397 1.514-.007 1.45-.1 1.544-1.534 1.544-1.326 0-1.326 0-1.315-1.827.008-1.235.008-1.235 1.452-1.23zM28.048 50.665c-.435-.12-1.17-.139-1.25-.377-.226-.675-.209-1.439-.224-2.169-.003-.13.278-.333.461-.382.243-.065.519 0 .78-.012 1.774-.078 1.684-.072 1.726 1.838.019.844-.314 1.097-1.075 1.002-.13-.016-.261-.003-.392-.003-.008.036-.017.07-.026.103z"/><path fill="#3D3434" d="M23.934 50.567c-1.425.003-1.425.003-1.43-1.252-.007-1.6-.007-1.6 1.359-1.598 1.498.003 1.525.003 1.495 1.194-.044 1.81.209 1.62-1.424 1.656zM8.85 43.777c-1.594.018-3.018-1.381-3.01-2.958.006-1.47 1.455-2.918 2.932-2.932 1.598-.014 2.996 1.384 2.98 2.985-.014 1.461-1.44 2.89-2.902 2.905z"/><path fill="#EE5D61" d="M35.6 25.348c.243.168.462.402.732.494 1.954.672 3.639 1.775 5.135 3.174.813.76 1.602 1.55 2.357 2.369.698.757.633 1.212-.158 1.935-.127.116-.223.265-.35.38-.743.674-.443.514.401 1.04.185.115.999 2.77 1.092 3.031-.73-.258-1.489.978-2.24.886-1.907-.233-1.348-2.83-1.94-.787-.011.153.123.779.112.932-.002.189 4.289 3.421.35 3.463-.996.082-2.92-1.368-3.996-2.39-4.57-2.809-7.351-9.363-6.476-15.264.73.096 1.46.184 2.189.293.932.139 1.862.295 2.792.444zm-1.219 7.416c.032-.837-.489-.462-1.145-.499-.587-.032-.45-.428-.349.15.1.574.509.852 1.126.819.539-.027.431.277.368-.47z"/><path fill="#3D3434" d="M12.295 32.422c-1.186-.05-1.878-.82-1.833-2.043.042-1.144.859-1.861 2.058-1.81 1.211.054 1.866.787 1.817 2.033-.046 1.184-.818 1.87-2.042 1.82z"/><path fill="#E73238" d="M37.365 38.003l-.034.46.034-.46z"/><path fill="#3D3434" d="M27.342 10.275c1.01-1.177 2.007-2.366 3.039-3.524.28-.314.665-.533 1.002-.796 1.593-1.534 3.5-2.528 5.624-3.043 1.44-.35 2.936-.526 4.278.431.332.31.764.564.98.94.895 1.57.691 3.108-.286 4.581l-.375.833c2.623-.093 4.66-3.431 2.807-6.183-1.058-1.572-2.626-2.26-4.446-2.401-2.176-.168-4.127.407-6.077 1.477-2.943 1.616-5.18 3.952-6.73 6.744-.066.107-.087.244-.128.366.103.193.208.385.312.575z"/><path fill="#EE5D61" d="M45.412 43.512c2.79-2.21 1.774-8.143-2.271-13.252-4.045-5.108-9.587-7.458-12.378-5.248-2.791 2.21-1.774 8.143 2.27 13.251 4.046 5.109 9.588 7.459 12.379 5.249z"/><path fill="#3D3434" d="M42.759 43.342c-1.899.02-3.593-1.645-3.584-3.523.01-1.749 1.735-3.473 3.492-3.49 1.903-.017 3.566 1.648 3.547 3.553-.018 1.741-1.715 3.44-3.455 3.46zM33.06 35.701c-1.186-.05-1.877-.82-1.832-2.043.042-1.144.858-1.86 2.058-1.809 1.211.053 1.866.786 1.817 2.033-.045 1.183-.817 1.87-2.043 1.819zM17.112 37.887c-.928-.038-1.47-.641-1.434-1.598.032-.895.67-1.456 1.61-1.415.947.041 1.46.614 1.421 1.59-.036.925-.64 1.463-1.597 1.423zM19.51 28.616c-1.438-.06-2.277-.994-2.222-2.478.05-1.387 1.04-2.257 2.496-2.193 1.47.064 2.263.952 2.204 2.465-.057 1.435-.992 2.268-2.478 2.206zM32.16 28.462c-1.493-.063-2.363-1.032-2.306-2.572.052-1.44 1.08-2.343 2.59-2.277 1.525.067 2.35.989 2.288 2.56-.058 1.489-1.03 2.353-2.572 2.289zM40.58 31.576c-1.262-.053-1.998-.873-1.95-2.175.046-1.216.914-1.98 2.19-1.924 1.29.056 1.986.836 1.935 2.163-.05 1.26-.87 1.99-2.175 1.936zM23.934 47.288c-1.425.004-1.425.004-1.43-1.252-.007-1.6-.007-1.6 1.359-1.597 1.498.002 1.525.002 1.495 1.194-.044 1.809.209 1.62-1.424 1.655zM27.213 50.567c-1.425.003-1.425.003-1.43-1.252-.007-1.6-.007-1.6 1.359-1.598 1.498.003 1.526.003 1.496 1.194-.046 1.81.208 1.62-1.425 1.656zM27.213 47.288c-1.425.004-1.425.004-1.43-1.252-.007-1.6-.007-1.6 1.359-1.597 1.498.002 1.526.002 1.496 1.194-.046 1.809.208 1.62-1.425 1.655zM37.395 38.187H33.89v5.334h3.506v-5.334z"/><path fill="#3D3434" d="M38.074 37.282h-4.855v1.176h4.855v-1.176zM18.053 57.422c-2.86.01-2.86.01-2.87-3.535-.012-4.517-.012-4.517 2.727-4.51 3.007.005 3.06.008 3 3.372-.089 5.106.42 4.573-2.857 4.673zM23.154 14.692c.455-.088.773-.418.711-.739-.062-.32-.48-.508-.935-.42-.455.088-.773.419-.712.74.063.32.481.507.936.42zM30.274 14.357c.076-.317-.227-.662-.678-.77-.45-.108-.877.061-.953.378-.076.317.227.662.678.77.45.108.877-.061.953-.378z"/><path fill="#3D3434" fill-rule="evenodd" d="M25.353 13.648c-.186 1.773 1.19 3.35 3.075 3.524 1.885.172 3.564-1.125 3.75-2.898.186-1.773-1.19-3.35-3.075-3.524-1.885-.173-3.564 1.124-3.75 2.898z" clip-rule="evenodd"/><path fill="#fff" fill-rule="evenodd" d="M25.478 13.982c-.168 1.59 1.067 3.006 2.759 3.161 1.691.155 3.197-1.008 3.364-2.6.168-1.59-1.067-3.005-2.759-3.16-1.69-.157-3.197 1.008-3.364 2.599z" clip-rule="evenodd"/><path fill="#3D3434" fill-rule="evenodd" d="M25.985 13.898c.239 1.914-.922 3.637-2.594 3.846-1.672.209-3.222-1.174-3.461-3.089-.24-1.914.922-3.637 2.593-3.845 1.672-.21 3.222 1.172 3.462 3.088z" clip-rule="evenodd"/><path fill="#fff" fill-rule="evenodd" d="M25.87 14.206c.214 1.718-.828 3.263-2.328 3.45-1.5.188-2.89-1.053-3.106-2.771-.214-1.718.827-3.263 2.328-3.45 1.5-.189 2.89 1.052 3.105 2.77z" clip-rule="evenodd"/><path fill="#3D3434" fill-rule="evenodd" d="M24.396 16.105c.063.5-.373.968-.974 1.044-.601.075-1.14-.27-1.203-.771-.063-.502.373-.969.974-1.044.6-.076 1.14.269 1.203.77v.001zM28.949 15.976c-.064.5-.568.926-1.124.953-.556.026-.954-.357-.89-.856v-.001c.064-.5.567-.927 1.123-.953.556-.026.955.357.89.856v.001z" clip-rule="evenodd"/><path fill="#E73238" fill-rule="evenodd" d="M25.862 21.093c-1.763.36-3.022-.424-2.813-1.752a1.52 1.52 0 01.016-.088c.32 1.059 1.524 1.616 3.089 1.295 1.129-.231 2.206-.87 2.976-1.683-.583 1.028-1.875 1.943-3.268 2.228z" clip-rule="evenodd"/></svg>