<svg width="18" height="19" viewBox="0 0 18 19" fill="none" xmlns="http://www.w3.org/2000/svg">
<path d="M18 9.87866C18 8.69678 17.7672 7.52649 17.3149 6.43445C16.8626 5.34263 16.1997 4.35034 15.364 3.51473C14.5283 2.67888 13.5361 2.01597 12.4441 1.56377C11.3522 1.11135 10.1819 0.878662 9 0.878662V2.67866C9.94554 2.67866 10.8818 2.86499 11.7553 3.22666C12.6289 3.58855 13.4226 4.11897 14.0912 4.7876C14.7597 5.45601 15.2901 6.24988 15.6519 7.12329C16.0138 7.99692 16.2 8.93321 16.2 9.87866H18Z" fill="#3A9A9F"/>
<path d="M0 8.07871V3.57871C0 3.08169 0.402948 2.67871 0.9 2.67871H5.4C5.89705 2.67871 6.3 3.08169 6.3 3.57871V7.17871C6.3 7.67574 5.89705 8.07871 5.4 8.07871H3.6C3.6 12.0551 6.82356 15.2787 10.8 15.2787V13.4787C10.8 12.9817 11.2029 12.5787 11.7 12.5787H15.3C15.7971 12.5787 16.2 12.9817 16.2 13.4787V17.9787C16.2 18.4757 15.7971 18.8787 15.3 18.8787H10.8C4.83533 18.8787 0 14.0434 0 8.07871Z" fill="#3A9A9F"/>
<path d="M13.989 7.81223C14.2603 8.46747 14.4 9.16974 14.4 9.87876H12.78C12.78 9.38241 12.6823 8.89083 12.4923 8.43228C12.3023 7.97351 12.0239 7.55691 11.6728 7.206C11.3218 6.85489 10.9052 6.57649 10.4466 6.38643C9.98793 6.19658 9.49635 6.0988 9 6.0988V4.47876C9.70911 4.47876 10.4113 4.6185 11.0665 4.88987C11.7216 5.16123 12.3169 5.55894 12.8183 6.06035C13.3198 6.56176 13.7176 7.15701 13.989 7.81223Z" fill="#3A9A9F"/>
</svg>
