<svg width="70" height="70" viewBox="0 0 70 70" fill="none" xmlns="http://www.w3.org/2000/svg">
<g clip-path="url(#clip0)">
<path d="M60.2546 53.8324L57.4148 56.6722C58.205 58.2934 58.6247 60.0848 58.6247 61.9414V68.833C58.6247 69.4773 58.1024 69.9997 57.4581 69.9997C56.8138 69.9997 56.2914 69.4773 56.2914 68.833V61.9414C56.2914 56.8351 52.3656 52.6717 47.3825 52.2681L42.5379 69.1547C42.3911 69.6666 41.9243 70 41.4171 70C40.6414 70 40.0814 69.2562 40.295 68.5113L45.0145 52.061C43.1162 51.6449 41.4614 50.4823 40.4203 48.773C40.085 48.2228 40.2594 47.505 40.8097 47.1697C41.3598 46.8343 42.0777 47.0089 42.413 47.5591C43.2616 48.9523 44.7123 49.8102 46.3292 49.8917C46.474 49.8675 46.625 49.8706 46.776 49.9045C50.4186 49.9616 53.8505 51.6316 56.1529 54.6343L58.6046 52.1826C59.5566 51.2306 59.6454 49.7157 58.8111 48.659C56.9611 46.3172 57.4314 43.4841 59.2052 41.8117C60.2013 40.8725 60.3141 39.2975 59.4617 38.2261L57.7823 36.1149C56.7712 34.8438 56.4419 33.1549 56.9016 31.597L57.9873 27.9176C58.3742 26.6065 57.712 25.2267 56.447 24.7084L55.0141 24.1213C53.1324 23.3502 51.9164 21.5385 51.9164 19.5056V15.7505C51.9164 8.35198 45.8978 2.33332 38.4998 2.33332H31.4999C24.1019 2.33332 18.0833 8.35228 18.0833 15.7505V19.5056C18.0833 21.5385 16.8674 23.3502 14.9858 24.1213L13.5527 24.7084C12.2877 25.2267 11.6256 26.6065 12.0124 27.9176L13.0981 31.597C13.5578 33.1549 13.2286 34.8438 12.2174 36.1149L10.538 38.2261C9.68577 39.2975 9.79849 40.8724 10.7945 41.8117C12.5714 43.4869 13.0364 46.3194 11.1883 48.6593C10.3541 49.7158 10.4429 51.2306 11.3949 52.1826L13.8467 54.6343C16.1039 51.6907 19.5643 49.8999 23.4164 49.8999C26.1089 49.8999 28.2914 47.7303 28.2914 45.0377V44.7311C23.4691 42.435 20.2442 37.8862 19.5423 32.7908C19.4544 32.1525 19.9006 31.5637 20.5388 31.4758C21.1768 31.3877 21.7658 31.8341 21.8538 32.4723C22.7522 38.9951 28.4037 43.9139 34.9997 43.9139C42.3173 43.9139 48.2705 37.9607 48.2705 30.6431V23.4511C45.543 22.4625 43.1639 20.561 41.6097 17.903C35.9836 24.4392 27.9503 28.2417 19.4423 28.5822C18.7999 28.6081 18.2558 28.1079 18.23 27.4631C18.2041 26.8192 18.7052 26.2764 19.3491 26.2508C27.7506 25.9148 35.6667 21.9364 40.9263 15.0422C41.4758 14.3216 42.6041 14.4775 42.9383 15.3194C44.163 18.4048 46.7349 20.6232 49.7561 21.4817C50.2006 21.6063 50.5611 22.0072 50.5994 22.5154C50.6067 22.6111 50.605 30.7156 50.6034 30.7653C50.5237 41.0465 40.5962 48.5473 30.6002 45.6114C30.4486 47.5444 29.5283 49.3642 27.9256 50.6516L34.9997 56.1284L39.1603 52.9074C39.6701 52.5129 40.4027 52.6064 40.797 53.1156C41.1915 53.6252 41.0981 54.358 40.5887 54.7523L36.1664 58.176V66.4997C36.1664 67.144 35.644 67.6664 34.9997 67.6664C34.3554 67.6664 33.833 67.144 33.833 66.4997V58.1762L25.6862 51.869C24.4208 52.2864 23.3055 52.2333 23.4166 52.2333C18.0509 52.2332 13.7081 56.5752 13.7081 61.9416V68.833C13.7081 69.4773 13.1858 69.9997 12.5415 69.9997C11.8972 69.9997 11.3748 69.4773 11.3748 68.833V61.9414C11.3748 60.0848 11.7945 58.2934 12.5848 56.6722L9.74497 53.8324C8.08321 52.1706 7.6444 49.3813 9.45637 47.0871C10.3155 45.9988 10.2026 44.4606 9.19358 43.5093C7.32225 41.7449 7.11065 38.7863 8.71175 36.7735L10.3912 34.6621C10.9294 33.9856 11.1046 33.0865 10.8599 32.2572L9.77414 28.5778C9.04731 26.1146 10.2913 23.5228 12.6676 22.5491L14.1007 21.962C15.1023 21.5516 15.7495 20.5872 15.7495 19.5054V15.7504C15.7501 7.06574 22.8155 0 31.5 0H38.5C47.1845 0 54.2499 7.06545 54.2499 15.7499V19.5056C54.2499 20.5874 54.8971 21.5517 55.8988 21.9623L57.3318 22.5492C59.7083 23.523 60.9522 26.1147 60.2254 28.578L59.1397 32.2573C58.895 33.0867 59.0701 33.9857 59.6084 34.6623L61.2878 36.7735C62.8889 38.7863 62.6771 41.7451 60.806 43.5093C59.797 44.4606 59.6841 45.9988 60.5433 47.0873C62.3253 49.3429 61.9477 52.1394 60.2546 53.8324ZM26.2061 56.1202C26.031 55.5001 25.3864 55.1391 24.7663 55.3145C24.1462 55.4896 23.7855 56.1342 23.9606 56.7543L27.4606 69.1501C27.6357 69.7703 28.2805 70.1308 28.9004 69.9558C29.5205 69.7807 29.8813 69.1361 29.7061 68.516L26.2061 56.1202Z" fill="#3A9A9F"/>
</g>
<defs>
<clipPath id="clip0">
<rect width="70" height="70" fill="white"/>
</clipPath>
</defs>
</svg>
